G04*
G04 #@! TF.GenerationSoftware,Altium Limited,Altium Designer,23.9.2 (47)*
G04*
G04 Layer_Color=8388736*
%FSLAX44Y44*%
%MOMM*%
G71*
G04*
G04 #@! TF.SameCoordinates,60F5B71E-2B93-43DD-B637-9BD39DAD1F72*
G04*
G04*
G04 #@! TF.FilePolarity,Negative*
G04*
G01*
G75*
%ADD27R,1.5032X1.8032*%
%ADD28R,2.4032X3.5032*%
%ADD29R,2.4032X1.2032*%
%ADD30R,1.9032X1.3032*%
%ADD31O,2.0032X0.5032*%
%ADD32O,0.5032X2.0032*%
%ADD33R,1.3032X1.5032*%
%ADD34R,0.9032X1.1032*%
%ADD35R,0.8032X0.7032*%
%ADD36R,1.2032X1.3032*%
%ADD37C,1.7032*%
%ADD38R,1.7032X1.7032*%
%ADD39R,1.2032X1.2032*%
%ADD40C,1.2032*%
%ADD41C,1.5032*%
%ADD42C,2.0532*%
%ADD43R,2.0532X2.0532*%
G04:AMPARAMS|DCode=44|XSize=2.1082mm|YSize=1.7272mm|CornerRadius=0mm|HoleSize=0mm|Usage=FLASHONLY|Rotation=180.000|XOffset=0mm|YOffset=0mm|HoleType=Round|Shape=Octagon|*
%AMOCTAGOND44*
4,1,8,-1.0541,0.4318,-1.0541,-0.4318,-0.6223,-0.8636,0.6223,-0.8636,1.0541,-0.4318,1.0541,0.4318,0.6223,0.8636,-0.6223,0.8636,-1.0541,0.4318,0.0*
%
%ADD44OCTAGOND44*%

%ADD45C,1.4732*%
%ADD46C,0.7112*%
D27*
X273500Y595000D02*
D03*
X254500D02*
D03*
Y571988D02*
D03*
X273500D02*
D03*
D28*
X205500Y571250D02*
D03*
D29*
X147500Y548250D02*
D03*
Y571250D02*
D03*
Y594250D02*
D03*
D30*
X118104Y567410D02*
D03*
Y594410D02*
D03*
X97530D02*
D03*
Y567410D02*
D03*
X76956Y594410D02*
D03*
Y567410D02*
D03*
D31*
X243500Y417750D02*
D03*
Y412750D02*
D03*
Y407750D02*
D03*
Y402750D02*
D03*
Y397750D02*
D03*
Y392750D02*
D03*
Y387750D02*
D03*
Y382750D02*
D03*
Y377750D02*
D03*
Y372750D02*
D03*
Y367750D02*
D03*
Y362750D02*
D03*
X324500D02*
D03*
Y367750D02*
D03*
Y372750D02*
D03*
Y377750D02*
D03*
Y382750D02*
D03*
Y387750D02*
D03*
Y392750D02*
D03*
Y397750D02*
D03*
Y402750D02*
D03*
Y407750D02*
D03*
Y412750D02*
D03*
Y417750D02*
D03*
D32*
X256500Y349750D02*
D03*
X261500D02*
D03*
X266500D02*
D03*
X271500D02*
D03*
X276500D02*
D03*
X281500D02*
D03*
X286500D02*
D03*
X291500D02*
D03*
X296500D02*
D03*
X301500D02*
D03*
X306500D02*
D03*
X311500D02*
D03*
Y430750D02*
D03*
X306500D02*
D03*
X301500D02*
D03*
X296500D02*
D03*
X291500D02*
D03*
X286500D02*
D03*
X281500D02*
D03*
X276500D02*
D03*
X271500D02*
D03*
X266500D02*
D03*
X261500D02*
D03*
X256500D02*
D03*
D33*
X205750Y363750D02*
D03*
Y386750D02*
D03*
X187750D02*
D03*
Y363750D02*
D03*
D34*
X205750Y339000D02*
D03*
X220750D02*
D03*
D35*
X187750Y401750D02*
D03*
X197750D02*
D03*
X205750Y349500D02*
D03*
X195750D02*
D03*
D36*
X445000Y162900D02*
D03*
X428000D02*
D03*
X445000Y188300D02*
D03*
X428000D02*
D03*
X445000Y213700D02*
D03*
X428000D02*
D03*
X445000Y239100D02*
D03*
X428000D02*
D03*
X445000Y264500D02*
D03*
X428000D02*
D03*
X445000Y289900D02*
D03*
X428000D02*
D03*
X445000Y315300D02*
D03*
X428000D02*
D03*
X445000Y340700D02*
D03*
X428000D02*
D03*
X445000Y366100D02*
D03*
X428000D02*
D03*
X445000Y391500D02*
D03*
X428000D02*
D03*
X445000Y416900D02*
D03*
X428000D02*
D03*
X445000Y442300D02*
D03*
X428000D02*
D03*
X445000Y467700D02*
D03*
X428000D02*
D03*
X445000Y493100D02*
D03*
X428000D02*
D03*
X445000Y518500D02*
D03*
X428000D02*
D03*
X445000Y543900D02*
D03*
X428000D02*
D03*
X53500Y383500D02*
D03*
X70500D02*
D03*
X53500Y434300D02*
D03*
X70500D02*
D03*
X53500Y408900D02*
D03*
X70500D02*
D03*
X53500Y256500D02*
D03*
X70500D02*
D03*
X53500Y281900D02*
D03*
X70500D02*
D03*
X53500Y307300D02*
D03*
X70500D02*
D03*
X53500Y332700D02*
D03*
X70500D02*
D03*
X53500Y358100D02*
D03*
X70500D02*
D03*
X53500Y459700D02*
D03*
X70500D02*
D03*
X53500Y485100D02*
D03*
X70500D02*
D03*
Y154900D02*
D03*
X53500D02*
D03*
X70500Y180300D02*
D03*
X53500D02*
D03*
Y205700D02*
D03*
X70500D02*
D03*
X53500Y231100D02*
D03*
X70500D02*
D03*
D37*
X41250Y568750D02*
D03*
D38*
Y594150D02*
D03*
D39*
X240050Y493500D02*
D03*
X326150D02*
D03*
D40*
X252750D02*
D03*
X265450D02*
D03*
X313450D02*
D03*
X300750D02*
D03*
X288050D02*
D03*
D41*
X167250Y439250D02*
D03*
Y408250D02*
D03*
D42*
X150250Y362150D02*
D03*
D43*
Y311350D02*
D03*
D44*
X28500Y485100D02*
D03*
Y459700D02*
D03*
Y434300D02*
D03*
Y408900D02*
D03*
Y383500D02*
D03*
Y358100D02*
D03*
Y332700D02*
D03*
Y307300D02*
D03*
Y281900D02*
D03*
Y256500D02*
D03*
Y231100D02*
D03*
Y205700D02*
D03*
Y180300D02*
D03*
Y154900D02*
D03*
X474500Y543900D02*
D03*
Y518500D02*
D03*
Y493100D02*
D03*
Y467700D02*
D03*
Y442300D02*
D03*
Y416900D02*
D03*
Y391500D02*
D03*
Y366100D02*
D03*
Y340700D02*
D03*
Y315300D02*
D03*
Y289900D02*
D03*
Y264500D02*
D03*
Y239100D02*
D03*
Y213700D02*
D03*
Y188300D02*
D03*
Y162900D02*
D03*
D45*
X322250Y185500D02*
D03*
D46*
X406250Y250872D02*
D03*
X254500Y553000D02*
D03*
X224250Y571500D02*
D03*
X344750Y487250D02*
D03*
X335250Y449500D02*
D03*
X345500Y430000D02*
D03*
X283750Y475500D02*
D03*
X313500Y448750D02*
D03*
X267000Y458750D02*
D03*
X276750Y447750D02*
D03*
X94500Y470166D02*
D03*
Y444416D02*
D03*
X406250Y479416D02*
D03*
X387250Y493200D02*
D03*
X406250Y504666D02*
D03*
X387250Y417000D02*
D03*
X387350Y340819D02*
D03*
X406250Y529916D02*
D03*
X387250Y544000D02*
D03*
Y518600D02*
D03*
X406250Y454072D02*
D03*
X387250Y468127D02*
D03*
X406250Y428434D02*
D03*
X387250Y442400D02*
D03*
X406250Y403166D02*
D03*
Y377916D02*
D03*
X387350Y391755D02*
D03*
X406250Y352416D02*
D03*
Y301666D02*
D03*
Y326916D02*
D03*
X387350Y315505D02*
D03*
X406250Y275750D02*
D03*
X387250Y290000D02*
D03*
X387350Y265005D02*
D03*
X387250Y163499D02*
D03*
X406250Y149166D02*
D03*
Y225472D02*
D03*
X387350Y239505D02*
D03*
X387550Y213700D02*
D03*
X406250Y200072D02*
D03*
X404500Y174500D02*
D03*
X387250Y188400D02*
D03*
X345500Y417750D02*
D03*
X387250Y366200D02*
D03*
X306500Y370750D02*
D03*
X104500Y485200D02*
D03*
X256500Y448750D02*
D03*
X104500Y459800D02*
D03*
Y282000D02*
D03*
Y307400D02*
D03*
X146000Y423750D02*
D03*
X224750Y371000D02*
D03*
X93750Y420672D02*
D03*
X104500Y434755D02*
D03*
X104431Y358255D02*
D03*
X93750Y369872D02*
D03*
X104531Y384500D02*
D03*
X104500Y332800D02*
D03*
X224250Y379500D02*
D03*
X226189Y386875D02*
D03*
X304500Y413250D02*
D03*
X261000Y409500D02*
D03*
X180000Y351750D02*
D03*
X211500Y397750D02*
D03*
X264000Y382750D02*
D03*
X311500Y330750D02*
D03*
X323500D02*
D03*
X93750Y395272D02*
D03*
X104500Y409505D02*
D03*
X104400Y180255D02*
D03*
X93750Y344166D02*
D03*
Y319111D02*
D03*
X104500Y256600D02*
D03*
Y231200D02*
D03*
Y205800D02*
D03*
Y155000D02*
D03*
X93750Y217166D02*
D03*
Y242416D02*
D03*
Y165416D02*
D03*
Y191916D02*
D03*
Y292666D02*
D03*
Y267416D02*
D03*
Y140166D02*
D03*
M02*
