G04*
G04 #@! TF.GenerationSoftware,Altium Limited,Altium Designer,23.9.2 (47)*
G04*
G04 Layer_Color=32768*
%FSLAX44Y44*%
%MOMM*%
G71*
G04*
G04 #@! TF.SameCoordinates,60F5B71E-2B93-43DD-B637-9BD39DAD1F72*
G04*
G04*
G04 #@! TF.FilePolarity,Positive*
G04*
G01*
G75*
%ADD14C,0.2540*%
%ADD76C,0.1000*%
%ADD77C,0.0500*%
G36*
X648188Y407860D02*
X642913D01*
Y414200D01*
X627039D01*
Y407860D01*
X622134D01*
Y408739D01*
X622087Y409156D01*
Y409618D01*
X621995Y410590D01*
Y410636D01*
X621948Y410821D01*
X621902Y411053D01*
X621856Y411377D01*
X621671Y412117D01*
X621532Y412487D01*
X621393Y412812D01*
X621347Y412858D01*
X621301Y412950D01*
X621208Y413135D01*
X621023Y413367D01*
X620653Y413830D01*
X620097Y414292D01*
X620051Y414339D01*
X619958Y414385D01*
X619773Y414478D01*
X619542Y414570D01*
X619218Y414709D01*
X618848Y414801D01*
X618478Y414894D01*
X618015Y414940D01*
Y421558D01*
X642913D01*
Y427760D01*
X648188D01*
Y407860D01*
D02*
G37*
G36*
X632407Y401843D02*
X632824D01*
X633287Y401797D01*
X633750D01*
X634860Y401658D01*
X636063Y401520D01*
X637267Y401288D01*
X638516Y400964D01*
X638563D01*
X638655Y400918D01*
X638840Y400872D01*
X639072Y400779D01*
X639303Y400686D01*
X639627Y400594D01*
X640414Y400270D01*
X641247Y399900D01*
X642172Y399437D01*
X643098Y398835D01*
X643977Y398187D01*
X644023D01*
X644070Y398095D01*
X644347Y397863D01*
X644810Y397401D01*
X645319Y396845D01*
X645875Y396151D01*
X646476Y395318D01*
X647078Y394393D01*
X647587Y393374D01*
Y393328D01*
X647633Y393236D01*
X647680Y393097D01*
X647772Y392865D01*
X647865Y392588D01*
X647957Y392264D01*
X648096Y391847D01*
X648188Y391431D01*
X648281Y390922D01*
X648420Y390366D01*
X648605Y389163D01*
X648744Y387821D01*
X648790Y386294D01*
Y385785D01*
X648744Y385414D01*
Y384952D01*
X648698Y384443D01*
X648605Y383332D01*
Y383286D01*
X648559Y383101D01*
Y382823D01*
X648512Y382499D01*
X648374Y381851D01*
X648327Y381573D01*
X648281Y381342D01*
X642357D01*
Y381944D01*
X642404Y381990D01*
X642496Y382129D01*
X642542Y382314D01*
X642635Y382545D01*
X642774Y382777D01*
X643005Y383471D01*
Y383517D01*
X643052Y383656D01*
X643098Y383887D01*
X643144Y384258D01*
X643190Y384674D01*
X643237Y385137D01*
X643283Y385738D01*
Y386942D01*
X643237Y387312D01*
X643190Y387728D01*
X643144Y388191D01*
X642913Y389209D01*
Y389256D01*
X642820Y389441D01*
X642728Y389718D01*
X642589Y390042D01*
X642404Y390413D01*
X642219Y390829D01*
X641663Y391616D01*
X641617Y391662D01*
X641524Y391801D01*
X641293Y391986D01*
X641062Y392217D01*
X640738Y392495D01*
X640367Y392773D01*
X639905Y393050D01*
X639442Y393328D01*
X639395Y393374D01*
X639210Y393421D01*
X638886Y393559D01*
X638516Y393698D01*
X638007Y393884D01*
X637452Y394022D01*
X636804Y394161D01*
X636063Y394254D01*
X636110Y394161D01*
X636249Y393976D01*
X636434Y393652D01*
X636619Y393282D01*
X636897Y392819D01*
X637174Y392310D01*
X637637Y391246D01*
Y391199D01*
X637729Y391014D01*
X637776Y390690D01*
X637868Y390320D01*
X637961Y389811D01*
X638054Y389209D01*
X638100Y388561D01*
X638146Y387821D01*
Y387266D01*
X638100Y386849D01*
X638054Y386386D01*
X638007Y385877D01*
X637776Y384813D01*
Y384767D01*
X637683Y384581D01*
X637591Y384304D01*
X637452Y383980D01*
X637267Y383563D01*
X637035Y383147D01*
X636480Y382221D01*
X636434Y382175D01*
X636249Y381990D01*
X635971Y381712D01*
X635601Y381342D01*
X635184Y380972D01*
X634629Y380555D01*
X634027Y380139D01*
X633333Y379768D01*
X633241Y379722D01*
X633009Y379630D01*
X632593Y379491D01*
X631991Y379352D01*
X631297Y379167D01*
X630464Y379028D01*
X629492Y378935D01*
X628381Y378889D01*
X628335D01*
X628289D01*
X628150D01*
X627965D01*
X627548Y378935D01*
X626946Y378982D01*
X626299Y379074D01*
X625558Y379213D01*
X624771Y379398D01*
X624031Y379676D01*
X623985D01*
X623938Y379722D01*
X623707Y379815D01*
X623337Y380000D01*
X622828Y380277D01*
X622319Y380555D01*
X621717Y380972D01*
X621115Y381435D01*
X620560Y381944D01*
X620514Y381990D01*
X620329Y382221D01*
X620051Y382499D01*
X619727Y382915D01*
X619357Y383424D01*
X618940Y384072D01*
X618570Y384767D01*
X618246Y385507D01*
Y385553D01*
X618200Y385600D01*
X618107Y385877D01*
X617968Y386340D01*
X617830Y386895D01*
X617691Y387589D01*
X617552Y388376D01*
X617459Y389302D01*
X617413Y390227D01*
Y390690D01*
X617459Y391153D01*
X617506Y391801D01*
X617598Y392541D01*
X617737Y393328D01*
X617922Y394115D01*
X618154Y394902D01*
Y394948D01*
X618200Y394994D01*
X618292Y395225D01*
X618478Y395642D01*
X618709Y396105D01*
X619033Y396660D01*
X619403Y397262D01*
X619866Y397863D01*
X620421Y398419D01*
X620514Y398511D01*
X620745Y398697D01*
X621115Y399020D01*
X621624Y399391D01*
X622272Y399807D01*
X623059Y400224D01*
X623938Y400640D01*
X624910Y401010D01*
X624957D01*
X625049Y401057D01*
X625188Y401103D01*
X625373Y401149D01*
X625651Y401195D01*
X625975Y401288D01*
X626345Y401381D01*
X626715Y401473D01*
X627687Y401612D01*
X628798Y401751D01*
X630047Y401843D01*
X631436Y401890D01*
X631482D01*
X631621D01*
X631806D01*
X632084D01*
X632407Y401843D01*
D02*
G37*
G36*
X648188Y367458D02*
X640229D01*
Y374632D01*
X648188D01*
Y367458D01*
D02*
G37*
G36*
X632407Y362506D02*
X632824D01*
X633287Y362460D01*
X633750D01*
X634860Y362321D01*
X636063Y362183D01*
X637267Y361951D01*
X638516Y361627D01*
X638563D01*
X638655Y361581D01*
X638840Y361535D01*
X639072Y361442D01*
X639303Y361349D01*
X639627Y361257D01*
X640414Y360933D01*
X641247Y360563D01*
X642172Y360100D01*
X643098Y359498D01*
X643977Y358850D01*
X644023D01*
X644070Y358758D01*
X644347Y358526D01*
X644810Y358064D01*
X645319Y357508D01*
X645875Y356814D01*
X646476Y355981D01*
X647078Y355056D01*
X647587Y354037D01*
Y353991D01*
X647633Y353899D01*
X647680Y353760D01*
X647772Y353528D01*
X647865Y353251D01*
X647957Y352927D01*
X648096Y352510D01*
X648188Y352094D01*
X648281Y351585D01*
X648420Y351029D01*
X648605Y349826D01*
X648744Y348484D01*
X648790Y346957D01*
Y346448D01*
X648744Y346077D01*
Y345615D01*
X648698Y345106D01*
X648605Y343995D01*
Y343949D01*
X648559Y343764D01*
Y343486D01*
X648512Y343162D01*
X648374Y342514D01*
X648327Y342236D01*
X648281Y342005D01*
X642357D01*
Y342607D01*
X642404Y342653D01*
X642496Y342792D01*
X642542Y342977D01*
X642635Y343208D01*
X642774Y343440D01*
X643005Y344134D01*
Y344180D01*
X643052Y344319D01*
X643098Y344550D01*
X643144Y344921D01*
X643190Y345337D01*
X643237Y345800D01*
X643283Y346401D01*
Y347605D01*
X643237Y347975D01*
X643190Y348391D01*
X643144Y348854D01*
X642913Y349872D01*
Y349919D01*
X642820Y350104D01*
X642728Y350381D01*
X642589Y350705D01*
X642404Y351076D01*
X642219Y351492D01*
X641663Y352279D01*
X641617Y352325D01*
X641524Y352464D01*
X641293Y352649D01*
X641062Y352880D01*
X640738Y353158D01*
X640367Y353436D01*
X639905Y353713D01*
X639442Y353991D01*
X639395Y354037D01*
X639210Y354084D01*
X638886Y354222D01*
X638516Y354361D01*
X638007Y354547D01*
X637452Y354685D01*
X636804Y354824D01*
X636063Y354917D01*
X636110Y354824D01*
X636249Y354639D01*
X636434Y354315D01*
X636619Y353945D01*
X636897Y353482D01*
X637174Y352973D01*
X637637Y351909D01*
Y351862D01*
X637729Y351677D01*
X637776Y351353D01*
X637868Y350983D01*
X637961Y350474D01*
X638054Y349872D01*
X638100Y349224D01*
X638146Y348484D01*
Y347929D01*
X638100Y347512D01*
X638054Y347049D01*
X638007Y346540D01*
X637776Y345476D01*
Y345430D01*
X637683Y345244D01*
X637591Y344967D01*
X637452Y344643D01*
X637267Y344226D01*
X637035Y343810D01*
X636480Y342884D01*
X636434Y342838D01*
X636249Y342653D01*
X635971Y342375D01*
X635601Y342005D01*
X635184Y341635D01*
X634629Y341218D01*
X634027Y340802D01*
X633333Y340432D01*
X633241Y340385D01*
X633009Y340293D01*
X632593Y340154D01*
X631991Y340015D01*
X631297Y339830D01*
X630464Y339691D01*
X629492Y339598D01*
X628381Y339552D01*
X628335D01*
X628289D01*
X628150D01*
X627965D01*
X627548Y339598D01*
X626946Y339645D01*
X626299Y339737D01*
X625558Y339876D01*
X624771Y340061D01*
X624031Y340339D01*
X623985D01*
X623938Y340385D01*
X623707Y340478D01*
X623337Y340663D01*
X622828Y340941D01*
X622319Y341218D01*
X621717Y341635D01*
X621115Y342098D01*
X620560Y342607D01*
X620514Y342653D01*
X620329Y342884D01*
X620051Y343162D01*
X619727Y343578D01*
X619357Y344087D01*
X618940Y344735D01*
X618570Y345430D01*
X618246Y346170D01*
Y346216D01*
X618200Y346263D01*
X618107Y346540D01*
X617968Y347003D01*
X617830Y347558D01*
X617691Y348253D01*
X617552Y349039D01*
X617459Y349965D01*
X617413Y350891D01*
Y351353D01*
X617459Y351816D01*
X617506Y352464D01*
X617598Y353204D01*
X617737Y353991D01*
X617922Y354778D01*
X618154Y355565D01*
Y355611D01*
X618200Y355657D01*
X618292Y355889D01*
X618478Y356305D01*
X618709Y356768D01*
X619033Y357323D01*
X619403Y357925D01*
X619866Y358526D01*
X620421Y359082D01*
X620514Y359174D01*
X620745Y359360D01*
X621115Y359683D01*
X621624Y360054D01*
X622272Y360470D01*
X623059Y360887D01*
X623938Y361303D01*
X624910Y361673D01*
X624957D01*
X625049Y361720D01*
X625188Y361766D01*
X625373Y361812D01*
X625651Y361858D01*
X625975Y361951D01*
X626345Y362044D01*
X626715Y362136D01*
X627687Y362275D01*
X628798Y362414D01*
X630047Y362506D01*
X631436Y362553D01*
X631482D01*
X631621D01*
X631806D01*
X632084D01*
X632407Y362506D01*
D02*
G37*
G36*
X641154Y333258D02*
X648281D01*
Y325900D01*
X641154D01*
Y312710D01*
X635554D01*
X618061Y325622D01*
Y333258D01*
X635740D01*
Y337331D01*
X641154D01*
Y333258D01*
D02*
G37*
G36*
X212691Y41200D02*
X199872D01*
Y36156D01*
X200103D01*
X200289Y36202D01*
X200751D01*
X201307Y36249D01*
X201584D01*
X201770Y36295D01*
X203389D01*
X203945Y36249D01*
X204546Y36202D01*
X205240Y36110D01*
X206629Y35832D01*
X206721D01*
X206953Y35740D01*
X207277Y35647D01*
X207739Y35508D01*
X208249Y35323D01*
X208758Y35092D01*
X209313Y34814D01*
X209868Y34490D01*
X209961Y34444D01*
X210146Y34305D01*
X210470Y34027D01*
X210840Y33703D01*
X211257Y33287D01*
X211719Y32731D01*
X212182Y32176D01*
X212552Y31482D01*
X212599Y31389D01*
X212691Y31158D01*
X212876Y30741D01*
X213062Y30232D01*
X213200Y29584D01*
X213386Y28798D01*
X213478Y27918D01*
X213524Y26947D01*
Y26900D01*
Y26854D01*
Y26715D01*
Y26530D01*
X213478Y26114D01*
X213432Y25512D01*
X213339Y24818D01*
X213154Y24077D01*
X212969Y23337D01*
X212691Y22550D01*
X212645Y22457D01*
X212552Y22226D01*
X212367Y21856D01*
X212090Y21393D01*
X211766Y20838D01*
X211349Y20282D01*
X210840Y19681D01*
X210285Y19125D01*
X210192Y19079D01*
X210007Y18894D01*
X209683Y18616D01*
X209220Y18292D01*
X208665Y17968D01*
X208063Y17598D01*
X207323Y17228D01*
X206536Y16904D01*
X206490D01*
X206444Y16858D01*
X206305Y16811D01*
X206166Y16765D01*
X205703Y16673D01*
X205055Y16534D01*
X204268Y16349D01*
X203389Y16256D01*
X202325Y16164D01*
X201214Y16117D01*
X200659D01*
X200381Y16164D01*
X200011D01*
X199224Y16210D01*
X198299Y16302D01*
X197373Y16395D01*
X196355Y16534D01*
X195429Y16719D01*
X195383D01*
X195337Y16765D01*
X195198D01*
X195013Y16811D01*
X194596Y16904D01*
X194041Y17043D01*
X193393Y17228D01*
X192745Y17459D01*
X192051Y17691D01*
X191449Y17922D01*
Y24494D01*
X192143D01*
X192190Y24448D01*
X192467Y24262D01*
X192884Y23985D01*
X193393Y23707D01*
X193439D01*
X193532Y23661D01*
X193671Y23568D01*
X193902Y23476D01*
X194133Y23337D01*
X194457Y23198D01*
X194828Y23059D01*
X195244Y22874D01*
X195290D01*
X195429Y22828D01*
X195661Y22735D01*
X195938Y22643D01*
X196262Y22504D01*
X196632Y22411D01*
X197419Y22180D01*
X197465D01*
X197604Y22134D01*
X197836Y22087D01*
X198160Y22041D01*
X198530Y21995D01*
X198946Y21948D01*
X199872Y21902D01*
X200335D01*
X200659Y21948D01*
X201029D01*
X201446Y22041D01*
X202417Y22180D01*
X202464D01*
X202649Y22226D01*
X202880Y22319D01*
X203204Y22411D01*
X203945Y22735D01*
X204268Y22967D01*
X204592Y23244D01*
X204639Y23291D01*
X204685Y23337D01*
X204963Y23661D01*
X205287Y24077D01*
X205564Y24586D01*
Y24633D01*
X205611Y24725D01*
X205703Y24910D01*
X205749Y25142D01*
X205842Y25419D01*
X205888Y25790D01*
X205935Y26206D01*
Y26669D01*
Y26715D01*
Y26854D01*
Y27039D01*
X205888Y27317D01*
X205749Y27872D01*
X205472Y28474D01*
Y28520D01*
X205379Y28613D01*
X205287Y28751D01*
X205194Y28937D01*
X204824Y29353D01*
X204315Y29723D01*
X204268Y29770D01*
X204130Y29816D01*
X203898Y29955D01*
X203621Y30094D01*
X203250Y30232D01*
X202834Y30371D01*
X202371Y30510D01*
X201816Y30603D01*
X201770D01*
X201584Y30649D01*
X201307Y30695D01*
X200983Y30741D01*
X200566D01*
X200150Y30788D01*
X199317Y30834D01*
X198715D01*
X198299Y30788D01*
X197789D01*
X197234Y30741D01*
X196077Y30556D01*
X196031D01*
X195800Y30510D01*
X195522Y30464D01*
X195152Y30371D01*
X194735Y30279D01*
X194272Y30186D01*
X193393Y30001D01*
X192745D01*
Y46893D01*
X212691D01*
Y41200D01*
D02*
G37*
G36*
X268596Y47402D02*
X269059Y47355D01*
X269568Y47309D01*
X270123Y47263D01*
X270771Y47170D01*
X272067Y46846D01*
X273409Y46430D01*
X274103Y46152D01*
X274705Y45828D01*
X275306Y45458D01*
X275862Y45042D01*
X275908Y44995D01*
X276001Y44949D01*
X276140Y44810D01*
X276278Y44579D01*
X276510Y44347D01*
X276741Y44070D01*
X276973Y43699D01*
X277250Y43283D01*
X277528Y42867D01*
X277759Y42357D01*
X277991Y41802D01*
X278222Y41200D01*
X278361Y40553D01*
X278500Y39858D01*
X278592Y39118D01*
X278639Y38331D01*
Y38285D01*
Y38192D01*
Y38054D01*
Y37868D01*
X278592Y37637D01*
Y37359D01*
X278500Y36665D01*
X278315Y35878D01*
X278083Y34999D01*
X277759Y34074D01*
X277343Y33102D01*
Y33055D01*
X277297Y33009D01*
X277204Y32870D01*
X277111Y32639D01*
X276973Y32408D01*
X276787Y32130D01*
X276371Y31482D01*
X275769Y30649D01*
X275075Y29723D01*
X274196Y28705D01*
X273178Y27641D01*
X273085Y27548D01*
X272854Y27317D01*
X272530Y26993D01*
X272067Y26576D01*
X271512Y26067D01*
X270956Y25512D01*
X269660Y24401D01*
X269568Y24355D01*
X269383Y24170D01*
X269059Y23938D01*
X268689Y23661D01*
X267902Y23013D01*
X267485Y22689D01*
X267161Y22457D01*
X279934D01*
Y16765D01*
X257813D01*
Y21671D01*
X257859Y21717D01*
X257952Y21763D01*
X258091Y21902D01*
X258276Y22041D01*
X258831Y22457D01*
X259479Y23013D01*
X260266Y23661D01*
X261099Y24355D01*
X261978Y25095D01*
X262811Y25836D01*
X262857Y25882D01*
X262904Y25928D01*
X263181Y26160D01*
X263598Y26576D01*
X264153Y27039D01*
X264801Y27641D01*
X265449Y28289D01*
X266143Y28937D01*
X266791Y29631D01*
X266838Y29677D01*
X266884Y29723D01*
X267161Y30001D01*
X267532Y30464D01*
X268041Y31019D01*
X268550Y31621D01*
X269059Y32315D01*
X269568Y33009D01*
X269984Y33703D01*
X270031Y33796D01*
X270123Y34027D01*
X270308Y34351D01*
X270494Y34814D01*
X270679Y35369D01*
X270864Y35971D01*
X270956Y36619D01*
X271003Y37313D01*
Y37359D01*
Y37406D01*
Y37637D01*
X270956Y38054D01*
X270864Y38516D01*
X270679Y39025D01*
X270447Y39534D01*
X270123Y40044D01*
X269707Y40506D01*
X269660Y40553D01*
X269475Y40691D01*
X269198Y40876D01*
X268827Y41108D01*
X268318Y41293D01*
X267717Y41478D01*
X267023Y41617D01*
X266236Y41663D01*
X265819D01*
X265542Y41617D01*
X265218Y41571D01*
X264848Y41524D01*
X264061Y41339D01*
X264014D01*
X263876Y41293D01*
X263690Y41247D01*
X263413Y41154D01*
X263089Y41062D01*
X262765Y40923D01*
X261978Y40645D01*
X261932D01*
X261793Y40553D01*
X261608Y40460D01*
X261377Y40367D01*
X260821Y40044D01*
X260220Y39673D01*
X260173D01*
X260081Y39581D01*
X259803Y39396D01*
X259433Y39164D01*
X259109Y38979D01*
X258554D01*
Y45551D01*
X258600Y45597D01*
X258785Y45643D01*
X259109Y45782D01*
X259525Y45921D01*
X260081Y46106D01*
X260729Y46337D01*
X261562Y46569D01*
X262487Y46800D01*
X262533D01*
X262626Y46846D01*
X262765D01*
X262950Y46893D01*
X263181Y46939D01*
X263505Y46985D01*
X264153Y47124D01*
X264986Y47263D01*
X265866Y47355D01*
X266791Y47402D01*
X267717Y47448D01*
X268226D01*
X268596Y47402D01*
D02*
G37*
G36*
X251889Y16765D02*
X244716D01*
Y24725D01*
X251889D01*
Y16765D01*
D02*
G37*
G36*
X229444Y47494D02*
X229768D01*
X230509Y47402D01*
X231342Y47263D01*
X232267Y47078D01*
X233193Y46846D01*
X234026Y46476D01*
X234072D01*
X234118Y46430D01*
X234396Y46291D01*
X234766Y46060D01*
X235275Y45736D01*
X235831Y45273D01*
X236432Y44764D01*
X237034Y44162D01*
X237589Y43422D01*
X237635Y43329D01*
X237821Y43052D01*
X238052Y42635D01*
X238376Y42080D01*
X238700Y41385D01*
X239024Y40553D01*
X239302Y39581D01*
X239579Y38516D01*
Y38470D01*
X239625Y38377D01*
Y38239D01*
X239672Y38007D01*
X239718Y37729D01*
X239764Y37406D01*
X239857Y37035D01*
X239903Y36572D01*
X240042Y35601D01*
X240135Y34444D01*
X240181Y33194D01*
X240227Y31806D01*
Y31760D01*
Y31621D01*
Y31436D01*
Y31158D01*
Y30834D01*
X240181Y30417D01*
Y30001D01*
X240135Y29492D01*
X240088Y28428D01*
X239949Y27271D01*
X239811Y26114D01*
X239579Y24957D01*
Y24910D01*
X239533Y24818D01*
Y24679D01*
X239440Y24494D01*
X239302Y23938D01*
X239070Y23244D01*
X238792Y22457D01*
X238469Y21671D01*
X238052Y20838D01*
X237589Y20051D01*
X237543Y19958D01*
X237358Y19727D01*
X237034Y19403D01*
X236617Y18940D01*
X236108Y18477D01*
X235460Y17968D01*
X234766Y17506D01*
X233979Y17089D01*
X233933D01*
X233887Y17043D01*
X233748Y16997D01*
X233609Y16950D01*
X233146Y16765D01*
X232499Y16626D01*
X231712Y16441D01*
X230786Y16256D01*
X229768Y16164D01*
X228611Y16117D01*
X228102D01*
X227824Y16164D01*
X227500D01*
X226760Y16256D01*
X225881Y16349D01*
X225001Y16534D01*
X224076Y16765D01*
X223197Y17089D01*
X223150D01*
X223104Y17135D01*
X222826Y17274D01*
X222456Y17506D01*
X221947Y17830D01*
X221345Y18292D01*
X220744Y18801D01*
X220142Y19403D01*
X219587Y20097D01*
Y20144D01*
X219541Y20190D01*
X219355Y20468D01*
X219124Y20884D01*
X218846Y21439D01*
X218522Y22180D01*
X218198Y23013D01*
X217875Y23938D01*
X217597Y25003D01*
Y25049D01*
X217551Y25142D01*
Y25280D01*
X217504Y25512D01*
X217458Y25790D01*
X217412Y26114D01*
X217365Y26530D01*
X217319Y26947D01*
X217180Y27965D01*
X217088Y29122D01*
X217041Y30417D01*
X216995Y31806D01*
Y31852D01*
Y31991D01*
Y32176D01*
Y32500D01*
Y32824D01*
X217041Y33240D01*
Y33703D01*
X217088Y34166D01*
X217134Y35231D01*
X217273Y36387D01*
X217412Y37544D01*
X217597Y38655D01*
Y38701D01*
X217643Y38794D01*
Y38933D01*
X217736Y39118D01*
X217875Y39673D01*
X218060Y40321D01*
X218337Y41108D01*
X218708Y41895D01*
X219124Y42774D01*
X219633Y43561D01*
Y43607D01*
X219679Y43653D01*
X219911Y43885D01*
X220188Y44255D01*
X220651Y44671D01*
X221160Y45180D01*
X221762Y45643D01*
X222502Y46106D01*
X223289Y46522D01*
X223335D01*
X223382Y46569D01*
X223521Y46615D01*
X223706Y46661D01*
X224168Y46846D01*
X224770Y47032D01*
X225557Y47217D01*
X226482Y47402D01*
X227500Y47494D01*
X228611Y47541D01*
X229167D01*
X229444Y47494D01*
D02*
G37*
G36*
X295299D02*
X295993Y47448D01*
X296734Y47402D01*
X297567Y47309D01*
X298400Y47124D01*
X299186Y46939D01*
X299233D01*
X299279Y46893D01*
X299557Y46846D01*
X299927Y46708D01*
X300390Y46522D01*
X300945Y46291D01*
X301500Y46013D01*
X302056Y45736D01*
X302565Y45366D01*
X302611Y45319D01*
X302796Y45180D01*
X303027Y44949D01*
X303351Y44671D01*
X303675Y44347D01*
X304046Y43931D01*
X304370Y43468D01*
X304694Y42959D01*
X304740Y42913D01*
X304832Y42728D01*
X304925Y42450D01*
X305064Y42080D01*
X305203Y41617D01*
X305341Y41108D01*
X305388Y40506D01*
X305434Y39905D01*
Y39812D01*
Y39534D01*
X305388Y39118D01*
X305295Y38609D01*
X305110Y38007D01*
X304925Y37359D01*
X304601Y36711D01*
X304184Y36017D01*
X304138Y35925D01*
X303953Y35740D01*
X303675Y35416D01*
X303259Y34999D01*
X302703Y34583D01*
X302056Y34074D01*
X301269Y33611D01*
X300390Y33148D01*
Y33009D01*
X300436D01*
X300528Y32963D01*
X300667Y32870D01*
X300899Y32778D01*
X301408Y32546D01*
X302056Y32176D01*
X302750Y31713D01*
X303490Y31158D01*
X304184Y30510D01*
X304786Y29816D01*
X304832Y29723D01*
X305018Y29492D01*
X305249Y29075D01*
X305527Y28520D01*
X305758Y27826D01*
X305989Y27039D01*
X306174Y26114D01*
X306221Y25142D01*
Y25049D01*
Y24818D01*
X306174Y24448D01*
X306128Y23985D01*
X306036Y23429D01*
X305851Y22782D01*
X305665Y22180D01*
X305388Y21532D01*
X305341Y21439D01*
X305249Y21254D01*
X305064Y20930D01*
X304786Y20560D01*
X304462Y20097D01*
X304092Y19588D01*
X303629Y19079D01*
X303074Y18616D01*
X303027Y18570D01*
X302796Y18431D01*
X302472Y18200D01*
X302056Y17922D01*
X301500Y17644D01*
X300852Y17321D01*
X300112Y17043D01*
X299325Y16765D01*
X299279D01*
X299233Y16719D01*
X299094D01*
X298955Y16673D01*
X298492Y16534D01*
X297844Y16441D01*
X297104Y16302D01*
X296271Y16164D01*
X295299Y16117D01*
X294281Y16071D01*
X293494D01*
X293216Y16117D01*
X292476Y16164D01*
X291643Y16256D01*
X290764Y16349D01*
X289838Y16534D01*
X288959Y16765D01*
X288913D01*
X288866Y16811D01*
X288589Y16904D01*
X288172Y17043D01*
X287663Y17274D01*
X287061Y17506D01*
X286413Y17830D01*
X285812Y18200D01*
X285210Y18616D01*
X285164Y18663D01*
X284979Y18848D01*
X284701Y19079D01*
X284423Y19403D01*
X284053Y19820D01*
X283729Y20329D01*
X283359Y20838D01*
X283081Y21439D01*
X283035Y21532D01*
X282989Y21717D01*
X282896Y22041D01*
X282757Y22457D01*
X282619Y22967D01*
X282526Y23568D01*
X282480Y24216D01*
X282433Y24864D01*
Y24910D01*
Y25003D01*
Y25095D01*
X282480Y25280D01*
X282526Y25790D01*
X282619Y26391D01*
X282757Y27039D01*
X283035Y27780D01*
X283359Y28474D01*
X283822Y29168D01*
X283868Y29260D01*
X284100Y29446D01*
X284423Y29770D01*
X284886Y30186D01*
X285441Y30603D01*
X286182Y31112D01*
X287015Y31574D01*
X287941Y32037D01*
Y32176D01*
X287894D01*
X287848Y32222D01*
X287709Y32315D01*
X287524Y32408D01*
X287061Y32685D01*
X286506Y33055D01*
X285858Y33518D01*
X285256Y34027D01*
X284701Y34629D01*
X284238Y35277D01*
X284192Y35369D01*
X284100Y35601D01*
X283914Y35971D01*
X283729Y36480D01*
X283544Y37082D01*
X283359Y37776D01*
X283266Y38563D01*
X283220Y39396D01*
Y39488D01*
Y39673D01*
X283266Y39997D01*
X283313Y40414D01*
X283405Y40876D01*
X283498Y41385D01*
X283683Y41941D01*
X283914Y42496D01*
X283961Y42543D01*
X284053Y42728D01*
X284238Y43005D01*
X284470Y43376D01*
X284794Y43792D01*
X285164Y44255D01*
X285580Y44671D01*
X286089Y45134D01*
X286136Y45180D01*
X286321Y45319D01*
X286645Y45504D01*
X287061Y45736D01*
X287570Y46013D01*
X288126Y46291D01*
X288820Y46569D01*
X289560Y46846D01*
X289607D01*
X289653Y46893D01*
X289931Y46939D01*
X290393Y47078D01*
X290949Y47217D01*
X291643Y47309D01*
X292476Y47448D01*
X293355Y47494D01*
X294327Y47541D01*
X294790D01*
X295299Y47494D01*
D02*
G37*
%LPC*%
G36*
X631204Y394393D02*
X630834D01*
X630325D01*
X630279D01*
X630232D01*
X630093D01*
X629908D01*
X629446D01*
X628890Y394346D01*
X628242Y394300D01*
X627594Y394207D01*
X626900Y394115D01*
X626299Y393976D01*
X626206D01*
X626021Y393884D01*
X625743Y393791D01*
X625373Y393698D01*
X624540Y393328D01*
X624170Y393097D01*
X623800Y392819D01*
X623753Y392773D01*
X623707Y392727D01*
X623429Y392449D01*
X623152Y392079D01*
X622874Y391616D01*
Y391570D01*
X622828Y391523D01*
X622781Y391384D01*
X622689Y391199D01*
X622596Y390737D01*
X622550Y390227D01*
Y389996D01*
X622596Y389811D01*
X622643Y389348D01*
X622828Y388885D01*
Y388839D01*
X622874Y388793D01*
X623059Y388515D01*
X623337Y388145D01*
X623800Y387682D01*
X623846D01*
X623892Y387589D01*
X624031Y387497D01*
X624216Y387404D01*
X624448Y387266D01*
X624771Y387080D01*
X625095Y386942D01*
X625512Y386803D01*
X625558D01*
X625697Y386757D01*
X625928Y386710D01*
X626252Y386664D01*
X626623Y386571D01*
X627039Y386525D01*
X628011Y386479D01*
X628057D01*
X628242D01*
X628520D01*
X628844Y386525D01*
X629631Y386618D01*
X630418Y386849D01*
X630464D01*
X630556Y386895D01*
X630741Y386988D01*
X630927Y387127D01*
X631436Y387404D01*
X631898Y387821D01*
Y387867D01*
X631991Y387960D01*
X632084Y388052D01*
X632222Y388237D01*
X632454Y388700D01*
X632685Y389302D01*
Y389348D01*
X632731Y389441D01*
Y389626D01*
X632778Y389857D01*
X632824Y390135D01*
Y390459D01*
X632870Y391153D01*
Y391477D01*
X632824Y391662D01*
X632778Y392217D01*
X632639Y392865D01*
Y392912D01*
X632593Y393004D01*
X632546Y393189D01*
X632500Y393374D01*
X632361Y393837D01*
X632176Y394300D01*
X632130D01*
X631991D01*
X631806D01*
X631528Y394346D01*
X631436D01*
X631204Y394393D01*
D02*
G37*
G36*
Y355056D02*
X630834D01*
X630325D01*
X630279D01*
X630232D01*
X630093D01*
X629908D01*
X629446D01*
X628890Y355009D01*
X628242Y354963D01*
X627594Y354870D01*
X626900Y354778D01*
X626299Y354639D01*
X626206D01*
X626021Y354547D01*
X625743Y354454D01*
X625373Y354361D01*
X624540Y353991D01*
X624170Y353760D01*
X623800Y353482D01*
X623753Y353436D01*
X623707Y353390D01*
X623429Y353112D01*
X623152Y352742D01*
X622874Y352279D01*
Y352233D01*
X622828Y352186D01*
X622781Y352047D01*
X622689Y351862D01*
X622596Y351399D01*
X622550Y350891D01*
Y350659D01*
X622596Y350474D01*
X622643Y350011D01*
X622828Y349548D01*
Y349502D01*
X622874Y349456D01*
X623059Y349178D01*
X623337Y348808D01*
X623800Y348345D01*
X623846D01*
X623892Y348253D01*
X624031Y348160D01*
X624216Y348068D01*
X624448Y347929D01*
X624771Y347743D01*
X625095Y347605D01*
X625512Y347466D01*
X625558D01*
X625697Y347420D01*
X625928Y347373D01*
X626252Y347327D01*
X626623Y347234D01*
X627039Y347188D01*
X628011Y347142D01*
X628057D01*
X628242D01*
X628520D01*
X628844Y347188D01*
X629631Y347281D01*
X630418Y347512D01*
X630464D01*
X630556Y347558D01*
X630741Y347651D01*
X630927Y347790D01*
X631436Y348068D01*
X631898Y348484D01*
Y348530D01*
X631991Y348623D01*
X632084Y348715D01*
X632222Y348900D01*
X632454Y349363D01*
X632685Y349965D01*
Y350011D01*
X632731Y350104D01*
Y350289D01*
X632778Y350520D01*
X632824Y350798D01*
Y351122D01*
X632870Y351816D01*
Y352140D01*
X632824Y352325D01*
X632778Y352880D01*
X632639Y353528D01*
Y353575D01*
X632593Y353667D01*
X632546Y353852D01*
X632500Y354037D01*
X632361Y354500D01*
X632176Y354963D01*
X632130D01*
X631991D01*
X631806D01*
X631528Y355009D01*
X631436D01*
X631204Y355056D01*
D02*
G37*
G36*
X635740Y325900D02*
X625558D01*
X635740Y318310D01*
Y325900D01*
D02*
G37*
G36*
X228611Y41987D02*
X228519D01*
X228241Y41941D01*
X227871Y41848D01*
X227408Y41709D01*
X226899Y41432D01*
X226390Y41015D01*
X226158Y40784D01*
X225927Y40460D01*
X225696Y40136D01*
X225511Y39720D01*
Y39673D01*
X225464Y39627D01*
X225418Y39488D01*
X225372Y39257D01*
X225279Y39025D01*
X225233Y38701D01*
X225140Y38331D01*
X225048Y37868D01*
X224955Y37359D01*
X224863Y36804D01*
X224816Y36156D01*
X224724Y35416D01*
X224678Y34629D01*
X224631Y33749D01*
X224585Y32824D01*
Y31806D01*
Y31760D01*
Y31574D01*
Y31297D01*
Y30926D01*
X224631Y30464D01*
Y29908D01*
X224678Y29353D01*
X224724Y28751D01*
X224816Y27456D01*
X224955Y26160D01*
X225094Y25512D01*
X225187Y24957D01*
X225372Y24401D01*
X225511Y23938D01*
Y23892D01*
X225557Y23846D01*
X225696Y23568D01*
X225927Y23244D01*
X226251Y22828D01*
X226667Y22411D01*
X227223Y22041D01*
X227871Y21763D01*
X228241Y21717D01*
X228611Y21671D01*
X228704D01*
X228981Y21717D01*
X229352Y21810D01*
X229814Y21948D01*
X230277Y22226D01*
X230786Y22643D01*
X231064Y22874D01*
X231249Y23198D01*
X231481Y23522D01*
X231666Y23938D01*
Y23985D01*
X231712Y24031D01*
X231758Y24170D01*
X231804Y24401D01*
X231897Y24633D01*
X231989Y24957D01*
X232082Y25327D01*
X232175Y25790D01*
X232221Y26299D01*
X232313Y26900D01*
X232406Y27502D01*
X232499Y28242D01*
X232545Y29029D01*
X232591Y29862D01*
X232637Y30788D01*
Y31806D01*
Y31852D01*
Y32037D01*
Y32361D01*
Y32731D01*
X232591Y33194D01*
Y33703D01*
X232545Y34305D01*
Y34906D01*
X232406Y36202D01*
X232267Y37544D01*
X232128Y38146D01*
X232036Y38748D01*
X231897Y39257D01*
X231712Y39720D01*
Y39766D01*
X231666Y39812D01*
X231527Y40090D01*
X231295Y40460D01*
X230971Y40876D01*
X230555Y41293D01*
X230000Y41617D01*
X229352Y41895D01*
X229028Y41941D01*
X228611Y41987D01*
D02*
G37*
G36*
X294327Y42404D02*
X294049D01*
X293725Y42357D01*
X293355Y42311D01*
X292939Y42219D01*
X292476Y42033D01*
X292059Y41848D01*
X291643Y41571D01*
X291597Y41524D01*
X291504Y41432D01*
X291319Y41247D01*
X291180Y41015D01*
X290995Y40691D01*
X290810Y40367D01*
X290717Y39951D01*
X290671Y39534D01*
Y39488D01*
Y39349D01*
X290717Y39118D01*
X290764Y38840D01*
X290949Y38192D01*
X291088Y37868D01*
X291273Y37591D01*
X291319Y37544D01*
X291411Y37452D01*
X291550Y37313D01*
X291735Y37128D01*
X292013Y36943D01*
X292337Y36711D01*
X292707Y36434D01*
X293170Y36202D01*
X293216D01*
X293263Y36156D01*
X293540Y36017D01*
X293957Y35832D01*
X294466Y35601D01*
X294512D01*
X294605Y35554D01*
X294790Y35508D01*
X295021Y35416D01*
X295299Y35277D01*
X295669Y35184D01*
X296086Y35045D01*
X296549Y34860D01*
X296595Y34906D01*
X296687Y35045D01*
X296826Y35231D01*
X297011Y35508D01*
X297381Y36110D01*
X297705Y36804D01*
Y36850D01*
X297752Y36989D01*
X297844Y37174D01*
X297890Y37452D01*
X297983Y37776D01*
X298029Y38146D01*
X298076Y39025D01*
Y39072D01*
Y39303D01*
X298029Y39581D01*
X297937Y39905D01*
X297844Y40275D01*
X297659Y40691D01*
X297381Y41108D01*
X297057Y41478D01*
X297011Y41524D01*
X296872Y41617D01*
X296641Y41756D01*
X296317Y41941D01*
X295947Y42126D01*
X295484Y42265D01*
X294929Y42357D01*
X294327Y42404D01*
D02*
G37*
G36*
X291782Y30325D02*
X291735Y30279D01*
X291643Y30186D01*
X291504Y30001D01*
X291319Y29770D01*
X291088Y29492D01*
X290856Y29168D01*
X290393Y28381D01*
X290347Y28335D01*
X290301Y28196D01*
X290208Y27965D01*
X290116Y27641D01*
X289977Y27271D01*
X289884Y26808D01*
X289838Y26345D01*
X289792Y25836D01*
Y25743D01*
Y25512D01*
X289884Y25095D01*
X289977Y24633D01*
X290116Y24123D01*
X290347Y23568D01*
X290671Y23013D01*
X291088Y22504D01*
X291134Y22457D01*
X291319Y22319D01*
X291643Y22087D01*
X292013Y21902D01*
X292522Y21671D01*
X293124Y21439D01*
X293818Y21300D01*
X294605Y21254D01*
X294697D01*
X295021Y21300D01*
X295438Y21347D01*
X295947Y21439D01*
X295993D01*
X296086Y21486D01*
X296224Y21532D01*
X296410Y21578D01*
X296826Y21763D01*
X297289Y22041D01*
X297335D01*
X297381Y22134D01*
X297659Y22365D01*
X298029Y22689D01*
X298353Y23105D01*
Y23152D01*
X298400Y23244D01*
X298492Y23383D01*
X298585Y23568D01*
X298631Y23800D01*
X298724Y24123D01*
X298770Y24818D01*
Y24864D01*
Y25049D01*
X298724Y25327D01*
X298677Y25651D01*
X298492Y26391D01*
X298353Y26761D01*
X298122Y27085D01*
X298076Y27132D01*
X297983Y27224D01*
X297798Y27409D01*
X297567Y27594D01*
X297196Y27872D01*
X296734Y28150D01*
X296132Y28474D01*
X295438Y28844D01*
X295392D01*
X295345Y28890D01*
X295206Y28937D01*
X295021Y29029D01*
X294744Y29122D01*
X294466Y29260D01*
X294142Y29399D01*
X293725Y29538D01*
X293679D01*
X293540Y29631D01*
X293355Y29677D01*
X293078Y29816D01*
X292476Y30047D01*
X291782Y30325D01*
D02*
G37*
%LPD*%
D14*
X632500Y622300D02*
X637580Y607060D01*
X627420D02*
X632500Y622300D01*
X627420Y138490D02*
X632500Y123250D01*
X637580Y138490D01*
X632500Y430299D02*
Y622300D01*
Y123250D02*
Y310170D01*
X509354Y622300D02*
X635040D01*
X509354Y123250D02*
X635040D01*
X0Y32500D02*
X15240Y37580D01*
X0Y32500D02*
X15240Y27420D01*
X487510D02*
X502750Y32500D01*
X487510Y37580D02*
X502750Y32500D01*
X0D02*
X188909D01*
X308761D02*
X502750D01*
X0Y29960D02*
Y116646D01*
X502750Y29960D02*
Y116646D01*
D76*
X113104Y580910D02*
X123104D01*
X118104Y575910D02*
Y585910D01*
X108604Y560910D02*
Y600910D01*
X127604Y560910D02*
Y600910D01*
X108604Y560910D02*
X127604D01*
X108604Y600910D02*
X127604D01*
X88030D02*
X107030D01*
X88030Y560910D02*
X107030D01*
Y600910D01*
X88030Y560910D02*
Y600910D01*
X97530Y575910D02*
Y585910D01*
X92530Y580910D02*
X102530D01*
X67456Y600910D02*
X86456D01*
X67456Y560910D02*
X86456D01*
Y600910D01*
X67456Y560910D02*
Y600910D01*
X76956Y575910D02*
Y585910D01*
X71956Y580910D02*
X81956D01*
X279000Y390250D02*
X289000D01*
X284000Y385250D02*
Y395250D01*
X201250Y333500D02*
Y344500D01*
X225250Y333500D02*
Y344500D01*
X201250D02*
X225250D01*
X201250Y333500D02*
X225250D01*
X208500Y339000D02*
X218000D01*
X213250Y334250D02*
Y343750D01*
X150750Y413250D02*
X156750D01*
X153750Y410250D02*
Y416250D01*
X157250Y404250D02*
Y422250D01*
X150250Y404250D02*
Y422250D01*
Y404250D02*
X157250D01*
X150250Y422250D02*
X157250D01*
X150250Y425250D02*
X157250D01*
X150250Y443250D02*
X157250D01*
Y425250D02*
Y443250D01*
X150250Y425250D02*
Y443250D01*
X153750Y431250D02*
Y437250D01*
X150750Y434250D02*
X156750D01*
X192750Y398750D02*
Y404750D01*
X189750Y401750D02*
X195750D01*
X183750Y405250D02*
X201750D01*
X183750Y398250D02*
X201750D01*
X183750D02*
Y405250D01*
X201750Y398250D02*
Y405250D01*
X200750Y346500D02*
Y352500D01*
X197750Y349500D02*
X203750D01*
X191750Y346000D02*
X209750D01*
X191750Y353000D02*
X209750D01*
Y346000D02*
Y353000D01*
X191750Y346000D02*
Y353000D01*
X255500Y384750D02*
Y395750D01*
X231500Y384750D02*
Y395750D01*
X255500D01*
X231500Y384750D02*
X255500D01*
X238750Y390250D02*
X248250D01*
X243500Y385500D02*
Y395000D01*
Y373250D02*
Y382750D01*
X238750Y378000D02*
X248250D01*
X231500Y372500D02*
X255500D01*
X231500Y383500D02*
X255500D01*
X231500Y372500D02*
Y383500D01*
X255500Y372500D02*
Y383500D01*
X243500Y361000D02*
Y370500D01*
X238750Y365750D02*
X248250D01*
X231500Y360250D02*
X255500D01*
X231500Y371250D02*
X255500D01*
X231500Y360250D02*
Y371250D01*
X255500Y360250D02*
Y371250D01*
X306750Y349750D02*
X316250D01*
X311500Y345000D02*
Y354500D01*
X317000Y337750D02*
Y361750D01*
X306000Y337750D02*
Y361750D01*
Y337750D02*
X317000D01*
X306000Y361750D02*
X317000D01*
X319000Y349750D02*
X328500D01*
X323750Y345000D02*
Y354500D01*
X329250Y337750D02*
Y361750D01*
X318250Y337750D02*
Y361750D01*
Y337750D02*
X329250D01*
X318250Y361750D02*
X329250D01*
X251750Y431500D02*
X261250D01*
X256500Y426750D02*
Y436250D01*
X251000Y419500D02*
Y443500D01*
X262000Y419500D02*
Y443500D01*
X251000D02*
X262000D01*
X251000Y419500D02*
X262000D01*
X324750Y413000D02*
Y422500D01*
X320000Y417750D02*
X329500D01*
X312750Y423250D02*
X336750D01*
X312750Y412250D02*
X336750D01*
Y423250D01*
X312750Y412250D02*
Y423250D01*
X324750Y425250D02*
Y434750D01*
X320000Y430000D02*
X329500D01*
X312750Y435500D02*
X336750D01*
X312750Y424500D02*
X336750D01*
Y435500D01*
X312750Y424500D02*
Y435500D01*
D77*
X232000Y338250D02*
Y442250D01*
X336000Y338250D02*
Y442250D01*
X232000D02*
X336000D01*
X232000Y338250D02*
X336000D01*
X179750Y354750D02*
Y395750D01*
Y354750D02*
X213750D01*
Y395750D01*
X179750D02*
X213750D01*
M02*
