G04*
G04 #@! TF.GenerationSoftware,Altium Limited,Altium Designer,23.9.2 (47)*
G04*
G04 Layer_Color=12632256*
%FSLAX44Y44*%
%MOMM*%
G71*
G04*
G04 #@! TF.SameCoordinates,60F5B71E-2B93-43DD-B637-9BD39DAD1F72*
G04*
G04*
G04 #@! TF.FilePolarity,Positive*
G04*
G01*
G75*
%ADD53C,1.5000*%
%ADD54R,1.5000X1.5000*%
%ADD55R,1.0000X1.0000*%
%ADD56C,1.0000*%
%ADD57C,1.3000*%
%ADD58C,1.8500*%
%ADD59R,1.8500X1.8500*%
G04:AMPARAMS|DCode=60|XSize=1.905mm|YSize=1.524mm|CornerRadius=0mm|HoleSize=0mm|Usage=FLASHONLY|Rotation=180.000|XOffset=0mm|YOffset=0mm|HoleType=Round|Shape=Octagon|*
%AMOCTAGOND60*
4,1,8,-0.9525,0.3810,-0.9525,-0.3810,-0.5715,-0.7620,0.5715,-0.7620,0.9525,-0.3810,0.9525,0.3810,0.5715,0.7620,-0.5715,0.7620,-0.9525,0.3810,0.0*
%
%ADD60OCTAGOND60*%

D53*
X41250Y568750D02*
D03*
D54*
Y594150D02*
D03*
D55*
X240050Y493500D02*
D03*
X326150D02*
D03*
D56*
X252750D02*
D03*
X265450D02*
D03*
X313450D02*
D03*
X300750D02*
D03*
X288050D02*
D03*
D57*
X167250Y439250D02*
D03*
Y408250D02*
D03*
D58*
X150250Y362150D02*
D03*
D59*
Y311350D02*
D03*
D60*
X28500Y485100D02*
D03*
Y459700D02*
D03*
Y434300D02*
D03*
Y408900D02*
D03*
Y383500D02*
D03*
Y358100D02*
D03*
Y332700D02*
D03*
Y307300D02*
D03*
Y281900D02*
D03*
Y256500D02*
D03*
Y231100D02*
D03*
Y205700D02*
D03*
Y180300D02*
D03*
Y154900D02*
D03*
X474500Y543900D02*
D03*
Y518500D02*
D03*
Y493100D02*
D03*
Y467700D02*
D03*
Y442300D02*
D03*
Y416900D02*
D03*
Y391500D02*
D03*
Y366100D02*
D03*
Y340700D02*
D03*
Y315300D02*
D03*
Y289900D02*
D03*
Y264500D02*
D03*
Y239100D02*
D03*
Y213700D02*
D03*
Y188300D02*
D03*
Y162900D02*
D03*
M02*
