G04*
G04 #@! TF.GenerationSoftware,Altium Limited,Altium Designer,23.9.2 (47)*
G04*
G04 Layer_Color=255*
%FSLAX44Y44*%
%MOMM*%
G71*
G04*
G04 #@! TF.SameCoordinates,60F5B71E-2B93-43DD-B637-9BD39DAD1F72*
G04*
G04*
G04 #@! TF.FilePolarity,Positive*
G04*
G01*
G75*
%ADD17R,1.3000X1.6000*%
%ADD18R,2.2000X3.3000*%
%ADD19R,2.2000X1.0000*%
%ADD20R,1.7000X1.1000*%
%ADD21O,1.8000X0.3000*%
%ADD22O,0.3000X1.8000*%
%ADD23R,1.1000X1.3000*%
%ADD24R,0.7000X0.9000*%
%ADD25R,0.6000X0.5000*%
%ADD26R,1.0000X1.1000*%
%ADD53C,1.5000*%
%ADD54R,1.5000X1.5000*%
%ADD55R,1.0000X1.0000*%
%ADD56C,1.0000*%
%ADD57C,1.3000*%
%ADD58C,1.8500*%
%ADD59R,1.8500X1.8500*%
G04:AMPARAMS|DCode=60|XSize=1.905mm|YSize=1.524mm|CornerRadius=0mm|HoleSize=0mm|Usage=FLASHONLY|Rotation=180.000|XOffset=0mm|YOffset=0mm|HoleType=Round|Shape=Octagon|*
%AMOCTAGOND60*
4,1,8,-0.9525,0.3810,-0.9525,-0.3810,-0.5715,-0.7620,0.5715,-0.7620,0.9525,-0.3810,0.9525,0.3810,0.5715,0.7620,-0.5715,0.7620,-0.9525,0.3810,0.0*
%
%ADD60OCTAGOND60*%

D17*
X273500Y595000D02*
D03*
X254500D02*
D03*
Y571988D02*
D03*
X273500D02*
D03*
D18*
X205500Y571250D02*
D03*
D19*
X147500Y548250D02*
D03*
Y571250D02*
D03*
Y594250D02*
D03*
D20*
X118104Y567410D02*
D03*
Y594410D02*
D03*
X97530D02*
D03*
Y567410D02*
D03*
X76956Y594410D02*
D03*
Y567410D02*
D03*
D21*
X243500Y417750D02*
D03*
Y412750D02*
D03*
Y407750D02*
D03*
Y402750D02*
D03*
Y397750D02*
D03*
Y392750D02*
D03*
Y387750D02*
D03*
Y382750D02*
D03*
Y377750D02*
D03*
Y372750D02*
D03*
Y367750D02*
D03*
Y362750D02*
D03*
X324500D02*
D03*
Y367750D02*
D03*
Y372750D02*
D03*
Y377750D02*
D03*
Y382750D02*
D03*
Y387750D02*
D03*
Y392750D02*
D03*
Y397750D02*
D03*
Y402750D02*
D03*
Y407750D02*
D03*
Y412750D02*
D03*
Y417750D02*
D03*
D22*
X256500Y349750D02*
D03*
X261500D02*
D03*
X266500D02*
D03*
X271500D02*
D03*
X276500D02*
D03*
X281500D02*
D03*
X286500D02*
D03*
X291500D02*
D03*
X296500D02*
D03*
X301500D02*
D03*
X306500D02*
D03*
X311500D02*
D03*
Y430750D02*
D03*
X306500D02*
D03*
X301500D02*
D03*
X296500D02*
D03*
X291500D02*
D03*
X286500D02*
D03*
X281500D02*
D03*
X276500D02*
D03*
X271500D02*
D03*
X266500D02*
D03*
X261500D02*
D03*
X256500D02*
D03*
D23*
X205750Y363750D02*
D03*
Y386750D02*
D03*
X187750D02*
D03*
Y363750D02*
D03*
D24*
X205750Y339000D02*
D03*
X220750D02*
D03*
D25*
X187750Y401750D02*
D03*
X197750D02*
D03*
X205750Y349500D02*
D03*
X195750D02*
D03*
D26*
X445000Y162900D02*
D03*
X428000D02*
D03*
X445000Y188300D02*
D03*
X428000D02*
D03*
X445000Y213700D02*
D03*
X428000D02*
D03*
X445000Y239100D02*
D03*
X428000D02*
D03*
X445000Y264500D02*
D03*
X428000D02*
D03*
X445000Y289900D02*
D03*
X428000D02*
D03*
X445000Y315300D02*
D03*
X428000D02*
D03*
X445000Y340700D02*
D03*
X428000D02*
D03*
X445000Y366100D02*
D03*
X428000D02*
D03*
X445000Y391500D02*
D03*
X428000D02*
D03*
X445000Y416900D02*
D03*
X428000D02*
D03*
X445000Y442300D02*
D03*
X428000D02*
D03*
X445000Y467700D02*
D03*
X428000D02*
D03*
X445000Y493100D02*
D03*
X428000D02*
D03*
X445000Y518500D02*
D03*
X428000D02*
D03*
X445000Y543900D02*
D03*
X428000D02*
D03*
X53500Y383500D02*
D03*
X70500D02*
D03*
X53500Y434300D02*
D03*
X70500D02*
D03*
X53500Y408900D02*
D03*
X70500D02*
D03*
X53500Y256500D02*
D03*
X70500D02*
D03*
X53500Y281900D02*
D03*
X70500D02*
D03*
X53500Y307300D02*
D03*
X70500D02*
D03*
X53500Y332700D02*
D03*
X70500D02*
D03*
X53500Y358100D02*
D03*
X70500D02*
D03*
X53500Y459700D02*
D03*
X70500D02*
D03*
X53500Y485100D02*
D03*
X70500D02*
D03*
Y154900D02*
D03*
X53500D02*
D03*
X70500Y180300D02*
D03*
X53500D02*
D03*
Y205700D02*
D03*
X70500D02*
D03*
X53500Y231100D02*
D03*
X70500D02*
D03*
D53*
X41250Y568750D02*
D03*
D54*
Y594150D02*
D03*
D55*
X240050Y493500D02*
D03*
X326150D02*
D03*
D56*
X252750D02*
D03*
X265450D02*
D03*
X313450D02*
D03*
X300750D02*
D03*
X288050D02*
D03*
D57*
X167250Y439250D02*
D03*
Y408250D02*
D03*
D58*
X150250Y362150D02*
D03*
D59*
Y311350D02*
D03*
D60*
X28500Y485100D02*
D03*
Y459700D02*
D03*
Y434300D02*
D03*
Y408900D02*
D03*
Y383500D02*
D03*
Y358100D02*
D03*
Y332700D02*
D03*
Y307300D02*
D03*
Y281900D02*
D03*
Y256500D02*
D03*
Y231100D02*
D03*
Y205700D02*
D03*
Y180300D02*
D03*
Y154900D02*
D03*
X474500Y543900D02*
D03*
Y518500D02*
D03*
Y493100D02*
D03*
Y467700D02*
D03*
Y442300D02*
D03*
Y416900D02*
D03*
Y391500D02*
D03*
Y366100D02*
D03*
Y340700D02*
D03*
Y315300D02*
D03*
Y289900D02*
D03*
Y264500D02*
D03*
Y239100D02*
D03*
Y213700D02*
D03*
Y188300D02*
D03*
Y162900D02*
D03*
M02*
