G04*
G04 #@! TF.GenerationSoftware,Altium Limited,Altium Designer,23.9.2 (47)*
G04*
G04 Layer_Color=16711935*
%FSLAX44Y44*%
%MOMM*%
G71*
G04*
G04 #@! TF.SameCoordinates,60F5B71E-2B93-43DD-B637-9BD39DAD1F72*
G04*
G04*
G04 #@! TF.FilePolarity,Positive*
G04*
G01*
G75*
%ADD12C,0.2000*%
%ADD15C,0.1270*%
%ADD76C,0.1000*%
D12*
X207450Y351750D02*
G03*
X207450Y351750I-1000J0D01*
G01*
D15*
X184250Y391250D02*
X209250D01*
X184250Y359250D02*
X209250D01*
Y391250D01*
X184250Y359250D02*
Y391250D01*
D76*
X263000Y416250D02*
G03*
X263000Y416250I-5000J0D01*
G01*
X109104Y563910D02*
Y597910D01*
X127104Y563910D02*
Y597910D01*
X109104Y563910D02*
X127104D01*
X109104Y597910D02*
X127104D01*
X88530D02*
X106530D01*
X88530Y563910D02*
X106530D01*
Y597910D01*
X88530Y563910D02*
Y597910D01*
X67956D02*
X85956D01*
X67956Y563910D02*
X85956D01*
Y597910D01*
X67956Y563910D02*
Y597910D01*
X249000Y355250D02*
Y425250D01*
X319000Y355250D02*
Y425250D01*
X249000D02*
X319000D01*
X249000Y355250D02*
X319000D01*
X204750Y334250D02*
Y343750D01*
X221750Y334250D02*
Y343750D01*
X204750D02*
X221750D01*
X204750Y334250D02*
X221750D01*
X156750Y407750D02*
Y418750D01*
X150750Y407750D02*
Y418750D01*
Y407750D02*
X156750D01*
X150750Y418750D02*
X156750D01*
X150750Y428750D02*
X156750D01*
X150750Y439750D02*
X156750D01*
Y428750D02*
Y439750D01*
X150750Y428750D02*
Y439750D01*
X187250Y404750D02*
X198250D01*
X187250Y398750D02*
X198250D01*
X187250D02*
Y404750D01*
X198250Y398750D02*
Y404750D01*
X195250Y346500D02*
X206250D01*
X195250Y352500D02*
X206250D01*
Y346500D02*
Y352500D01*
X195250Y346500D02*
Y352500D01*
X252250Y385500D02*
Y395000D01*
X234750Y385500D02*
Y395000D01*
X252250D01*
X234750Y385500D02*
X252250D01*
X234750Y373250D02*
X252250D01*
X234750Y382750D02*
X252250D01*
X234750Y373250D02*
Y382750D01*
X252250Y373250D02*
Y382750D01*
X234750Y361000D02*
X252250D01*
X234750Y370500D02*
X252250D01*
X234750Y361000D02*
Y370500D01*
X252250Y361000D02*
Y370500D01*
X316250Y341000D02*
Y358500D01*
X306750Y341000D02*
Y358500D01*
Y341000D02*
X316250D01*
X306750Y358500D02*
X316250D01*
X328500Y341000D02*
Y358500D01*
X319000Y341000D02*
Y358500D01*
Y341000D02*
X328500D01*
X319000Y358500D02*
X328500D01*
X251750Y422750D02*
Y440250D01*
X261250Y422750D02*
Y440250D01*
X251750D02*
X261250D01*
X251750Y422750D02*
X261250D01*
X316000Y422500D02*
X333500D01*
X316000Y413000D02*
X333500D01*
Y422500D01*
X316000Y413000D02*
Y422500D01*
Y434750D02*
X333500D01*
X316000Y425250D02*
X333500D01*
Y434750D01*
X316000Y425250D02*
Y434750D01*
M02*
