G04*
G04 #@! TF.GenerationSoftware,Altium Limited,Altium Designer,23.9.2 (47)*
G04*
G04 Layer_Physical_Order=3*
G04 Layer_Color=128*
%FSLAX44Y44*%
%MOMM*%
G71*
G04*
G04 #@! TF.SameCoordinates,60F5B71E-2B93-43DD-B637-9BD39DAD1F72*
G04*
G04*
G04 #@! TF.FilePolarity,Negative*
G04*
G01*
G75*
%ADD61C,1.2700*%
%ADD63C,1.0160*%
%ADD64C,1.9160*%
%ADD65C,1.6160*%
%ADD66C,1.7160*%
%ADD67C,2.1160*%
%ADD68C,2.0160*%
%ADD69C,1.7272*%
D61*
X254500Y553000D02*
D03*
X344750Y487250D02*
D03*
X335250Y449500D02*
D03*
X283750Y475500D02*
D03*
X313500Y448750D02*
D03*
X267000Y458750D02*
D03*
X276750Y447750D02*
D03*
X387250Y493200D02*
D03*
Y417000D02*
D03*
X387350Y340819D02*
D03*
X387250Y544000D02*
D03*
Y518600D02*
D03*
Y468127D02*
D03*
Y442400D02*
D03*
X387350Y391755D02*
D03*
Y315505D02*
D03*
X387250Y290000D02*
D03*
X387350Y265005D02*
D03*
X387250Y163499D02*
D03*
X387350Y239505D02*
D03*
X387550Y213700D02*
D03*
X387250Y188400D02*
D03*
Y366200D02*
D03*
X306500Y370750D02*
D03*
X104500Y485200D02*
D03*
Y459800D02*
D03*
Y282000D02*
D03*
Y307400D02*
D03*
X146000Y423750D02*
D03*
X104500Y434755D02*
D03*
X104431Y358255D02*
D03*
X104531Y384500D02*
D03*
X104500Y332800D02*
D03*
X226189Y386875D02*
D03*
X304500Y413250D02*
D03*
X261000Y409500D02*
D03*
X180000Y351750D02*
D03*
X211500Y397750D02*
D03*
X264000Y382750D02*
D03*
X104500Y409505D02*
D03*
X104400Y180255D02*
D03*
X104500Y256600D02*
D03*
Y231200D02*
D03*
Y205800D02*
D03*
Y155000D02*
D03*
D63*
X0Y123250D02*
X502750D01*
X502750Y622300D02*
X502750Y123250D01*
X0Y622300D02*
X502750D01*
X0Y123250D02*
Y622300D01*
D64*
X41250Y568750D02*
D03*
Y594150D02*
D03*
D65*
X252750Y493500D02*
D03*
X265450D02*
D03*
X313450D02*
D03*
X300750D02*
D03*
X288050D02*
D03*
D66*
X167250Y439250D02*
D03*
Y408250D02*
D03*
D67*
X150250Y362150D02*
D03*
Y311350D02*
D03*
D68*
X28500Y485100D02*
D03*
Y459700D02*
D03*
Y434300D02*
D03*
Y408900D02*
D03*
Y383500D02*
D03*
Y358100D02*
D03*
Y332700D02*
D03*
Y307300D02*
D03*
Y281900D02*
D03*
Y256500D02*
D03*
Y231100D02*
D03*
Y205700D02*
D03*
Y180300D02*
D03*
Y154900D02*
D03*
X474500Y543900D02*
D03*
Y518500D02*
D03*
Y493100D02*
D03*
Y467700D02*
D03*
Y442300D02*
D03*
Y416900D02*
D03*
Y391500D02*
D03*
Y366100D02*
D03*
Y340700D02*
D03*
Y315300D02*
D03*
Y289900D02*
D03*
Y264500D02*
D03*
Y239100D02*
D03*
Y213700D02*
D03*
Y188300D02*
D03*
Y162900D02*
D03*
D69*
X322250Y185500D02*
D03*
M02*
