G04*
G04 #@! TF.GenerationSoftware,Altium Limited,Altium Designer,23.9.2 (47)*
G04*
G04 Layer_Color=128*
%FSLAX44Y44*%
%MOMM*%
G71*
G04*
G04 #@! TF.SameCoordinates,60F5B71E-2B93-43DD-B637-9BD39DAD1F72*
G04*
G04*
G04 #@! TF.FilePolarity,Positive*
G04*
G01*
G75*
%ADD26R,1.0000X1.1000*%
%ADD70R,0.5000X0.6000*%
%ADD71R,0.8000X0.9000*%
%ADD72R,0.9000X0.8000*%
D26*
X428000Y162900D02*
D03*
X445000D02*
D03*
X428000Y188300D02*
D03*
X445000D02*
D03*
X428000Y213700D02*
D03*
X445000D02*
D03*
X428000Y239100D02*
D03*
X445000D02*
D03*
X428000Y264500D02*
D03*
X445000D02*
D03*
X428000Y289900D02*
D03*
X445000D02*
D03*
X428000Y315300D02*
D03*
X445000D02*
D03*
X428000Y340700D02*
D03*
X445000D02*
D03*
X428000Y366100D02*
D03*
X445000D02*
D03*
X428000Y391500D02*
D03*
X445000D02*
D03*
X428000Y416900D02*
D03*
X445000D02*
D03*
X428000Y442300D02*
D03*
X445000D02*
D03*
X428000Y467700D02*
D03*
X445000D02*
D03*
X428000Y493100D02*
D03*
X445000D02*
D03*
X428000Y518500D02*
D03*
X445000D02*
D03*
X428000Y543900D02*
D03*
X445000D02*
D03*
X53500Y154900D02*
D03*
X70500D02*
D03*
X53500Y180300D02*
D03*
X70500D02*
D03*
Y205700D02*
D03*
X53500D02*
D03*
X70500Y231100D02*
D03*
X53500D02*
D03*
X70500Y256500D02*
D03*
X53500D02*
D03*
X70500Y281900D02*
D03*
X53500D02*
D03*
X70500Y307300D02*
D03*
X53500D02*
D03*
X70500Y383500D02*
D03*
X53500D02*
D03*
X70500Y358100D02*
D03*
X53500D02*
D03*
X70500Y408900D02*
D03*
X53500D02*
D03*
X70500Y434300D02*
D03*
X53500D02*
D03*
X70500Y459700D02*
D03*
X53500D02*
D03*
X70500Y485100D02*
D03*
X53500D02*
D03*
X70500Y332700D02*
D03*
X53500D02*
D03*
D70*
X153750Y408250D02*
D03*
Y418250D02*
D03*
Y429250D02*
D03*
Y439250D02*
D03*
D71*
X250500Y390250D02*
D03*
X236500D02*
D03*
Y378000D02*
D03*
X250500D02*
D03*
X236500Y365750D02*
D03*
X250500D02*
D03*
X331750Y417750D02*
D03*
X317750D02*
D03*
X331750Y430000D02*
D03*
X317750D02*
D03*
D72*
X311500Y342750D02*
D03*
Y356750D02*
D03*
X323750Y342750D02*
D03*
Y356750D02*
D03*
X256500Y438500D02*
D03*
Y424500D02*
D03*
M02*
