G04*
G04 #@! TF.GenerationSoftware,Altium Limited,Altium Designer,23.9.2 (47)*
G04*
G04 Layer_Physical_Order=4*
G04 Layer_Color=16711680*
%FSLAX44Y44*%
%MOMM*%
G71*
G04*
G04 #@! TF.SameCoordinates,60F5B71E-2B93-43DD-B637-9BD39DAD1F72*
G04*
G04*
G04 #@! TF.FilePolarity,Positive*
G04*
G01*
G75*
%ADD14C,0.2540*%
%ADD26R,1.0000X1.1000*%
%ADD49C,0.9906*%
%ADD50C,0.8128*%
%ADD51C,0.2997*%
%ADD53C,1.5000*%
%ADD54R,1.5000X1.5000*%
%ADD55R,1.0000X1.0000*%
%ADD56C,1.0000*%
%ADD57C,1.3000*%
%ADD58C,1.8500*%
%ADD59R,1.8500X1.8500*%
G04:AMPARAMS|DCode=60|XSize=1.905mm|YSize=1.524mm|CornerRadius=0mm|HoleSize=0mm|Usage=FLASHONLY|Rotation=180.000|XOffset=0mm|YOffset=0mm|HoleType=Round|Shape=Octagon|*
%AMOCTAGOND60*
4,1,8,-0.9525,0.3810,-0.9525,-0.3810,-0.5715,-0.7620,0.5715,-0.7620,0.9525,-0.3810,0.9525,0.3810,0.5715,0.7620,-0.5715,0.7620,-0.9525,0.3810,0.0*
%
%ADD60OCTAGOND60*%

%ADD61C,1.2700*%
%ADD62C,0.5080*%
%ADD70R,0.5000X0.6000*%
%ADD71R,0.8000X0.9000*%
%ADD72R,0.9000X0.8000*%
G36*
X497052Y128947D02*
X5698D01*
Y616603D01*
X497052D01*
X497052Y128947D01*
D02*
G37*
%LPC*%
G36*
X224250Y575644D02*
X222664Y575328D01*
X221320Y574430D01*
X220422Y573086D01*
X220106Y571500D01*
X220422Y569914D01*
X221320Y568570D01*
X222664Y567672D01*
X224250Y567356D01*
X225836Y567672D01*
X227180Y568570D01*
X228078Y569914D01*
X228394Y571500D01*
X228078Y573086D01*
X227180Y574430D01*
X225836Y575328D01*
X224250Y575644D01*
D02*
G37*
G36*
X41250Y577852D02*
X38894Y577542D01*
X36699Y576632D01*
X34814Y575186D01*
X33368Y573301D01*
X32458Y571106D01*
X32148Y568750D01*
X32458Y566394D01*
X33368Y564199D01*
X34814Y562314D01*
X36699Y560868D01*
X38894Y559958D01*
X41250Y559648D01*
X43606Y559958D01*
X45801Y560868D01*
X47686Y562314D01*
X49132Y564199D01*
X50042Y566394D01*
X50352Y568750D01*
X50042Y571106D01*
X49132Y573301D01*
X47686Y575186D01*
X45801Y576632D01*
X43606Y577542D01*
X41250Y577852D01*
D02*
G37*
G36*
X480977Y553044D02*
X468023D01*
X464576Y549598D01*
X451524D01*
Y550924D01*
X438476D01*
Y536876D01*
X451524D01*
Y538203D01*
X464576D01*
X468023Y534756D01*
X480977D01*
X485549Y539328D01*
Y548472D01*
X480977Y553044D01*
D02*
G37*
G36*
Y527644D02*
X468023D01*
X464576Y524198D01*
X451524D01*
Y525524D01*
X438476D01*
Y511476D01*
X451524D01*
Y512803D01*
X464576D01*
X468023Y509356D01*
X480977D01*
X485549Y513928D01*
Y523072D01*
X480977Y527644D01*
D02*
G37*
G36*
X434524Y550924D02*
X421476D01*
Y546215D01*
X413365Y538104D01*
X407834D01*
X405307Y537601D01*
X403164Y536170D01*
X401580Y534586D01*
X400149Y532443D01*
X399646Y529916D01*
X400149Y527389D01*
X401580Y525246D01*
X403723Y523815D01*
X406250Y523312D01*
X408777Y523815D01*
X410396Y524896D01*
X416100D01*
X418628Y525399D01*
X420770Y526830D01*
X430816Y536876D01*
X434524D01*
Y542998D01*
X434604Y543400D01*
X434524Y543802D01*
Y550924D01*
D02*
G37*
G36*
X480977Y502244D02*
X468023D01*
X464576Y498797D01*
X451524D01*
Y500124D01*
X438476D01*
Y486076D01*
X451524D01*
Y487402D01*
X464576D01*
X468023Y483956D01*
X480977D01*
X485549Y488528D01*
Y497672D01*
X480977Y502244D01*
D02*
G37*
G36*
X434524Y525524D02*
X421476D01*
Y520815D01*
X413365Y512704D01*
X407684D01*
X405157Y512201D01*
X403014Y510770D01*
X401580Y509336D01*
X400149Y507193D01*
X399646Y504666D01*
X400149Y502139D01*
X401580Y499996D01*
X403723Y498565D01*
X406250Y498062D01*
X408777Y498565D01*
X410171Y499496D01*
X416100D01*
X418628Y499999D01*
X420770Y501430D01*
X430816Y511476D01*
X434524D01*
Y517598D01*
X434604Y518000D01*
X434524Y518402D01*
Y525524D01*
D02*
G37*
G36*
X252750Y500080D02*
X251047Y499856D01*
X249460Y499199D01*
X248097Y498153D01*
X247844Y497823D01*
X246574Y498254D01*
Y500024D01*
X233526D01*
Y486976D01*
X246574D01*
Y488746D01*
X247844Y489177D01*
X248097Y488847D01*
X249460Y487801D01*
X251047Y487144D01*
X252750Y486920D01*
X254453Y487144D01*
X256040Y487801D01*
X257403Y488847D01*
X258449Y490210D01*
X259106Y491797D01*
X259330Y493500D01*
X259106Y495203D01*
X258449Y496790D01*
X257403Y498153D01*
X256040Y499199D01*
X254453Y499856D01*
X252750Y500080D01*
D02*
G37*
G36*
X313450D02*
X311747Y499856D01*
X310160Y499199D01*
X308797Y498153D01*
X307798Y496851D01*
X307113Y496751D01*
X307087D01*
X306402Y496851D01*
X305403Y498153D01*
X304040Y499199D01*
X302453Y499856D01*
X300750Y500080D01*
X299047Y499856D01*
X297460Y499199D01*
X296097Y498153D01*
X295051Y496790D01*
X294394Y495203D01*
X294170Y493500D01*
X294394Y491797D01*
X295051Y490210D01*
X296097Y488847D01*
X297460Y487801D01*
X299047Y487144D01*
X300750Y486920D01*
X302453Y487144D01*
X304040Y487801D01*
X305403Y488847D01*
X306402Y490149D01*
X307087Y490249D01*
X307113D01*
X307798Y490149D01*
X308797Y488847D01*
X310160Y487801D01*
X311747Y487144D01*
X313450Y486920D01*
X315153Y487144D01*
X316740Y487801D01*
X318103Y488847D01*
X318356Y489177D01*
X319626Y488746D01*
Y486976D01*
X332674D01*
Y500024D01*
X319626D01*
Y498254D01*
X318356Y497823D01*
X318103Y498153D01*
X316740Y499199D01*
X315153Y499856D01*
X313450Y500080D01*
D02*
G37*
G36*
X344750Y491394D02*
X343164Y491078D01*
X341820Y490180D01*
X340922Y488836D01*
X340606Y487250D01*
X340625Y487154D01*
X333236Y479764D01*
X332618Y478840D01*
X332401Y477750D01*
X332401Y477750D01*
Y452484D01*
X332320Y452430D01*
X331422Y451086D01*
X331106Y449500D01*
X331422Y447914D01*
X332320Y446570D01*
X333664Y445672D01*
X335250Y445356D01*
X336836Y445672D01*
X338180Y446570D01*
X339078Y447914D01*
X339394Y449500D01*
X339078Y451086D01*
X338180Y452430D01*
X338099Y452484D01*
Y476570D01*
X344654Y483125D01*
X344750Y483106D01*
X346336Y483422D01*
X347680Y484320D01*
X348578Y485664D01*
X348894Y487250D01*
X348578Y488836D01*
X347680Y490180D01*
X346336Y491078D01*
X344750Y491394D01*
D02*
G37*
G36*
X34977Y494244D02*
X22023D01*
X17451Y489672D01*
Y480528D01*
X22023Y475956D01*
X34977D01*
X38424Y479403D01*
X46976D01*
Y478076D01*
X60024D01*
Y492124D01*
X46976D01*
Y490798D01*
X38424D01*
X34977Y494244D01*
D02*
G37*
G36*
X480977Y476844D02*
X468023D01*
X464576Y473397D01*
X451524D01*
Y474724D01*
X438476D01*
Y460676D01*
X451524D01*
Y462002D01*
X464576D01*
X468023Y458556D01*
X480977D01*
X485549Y463128D01*
Y472272D01*
X480977Y476844D01*
D02*
G37*
G36*
X434524Y500124D02*
X421476D01*
Y495415D01*
X413365Y487304D01*
X407534D01*
X405007Y486801D01*
X402864Y485370D01*
X401580Y484086D01*
X400149Y481943D01*
X399646Y479416D01*
X400149Y476889D01*
X401580Y474746D01*
X403723Y473315D01*
X406250Y472812D01*
X408777Y473315D01*
X409947Y474096D01*
X416100D01*
X418628Y474599D01*
X420770Y476030D01*
X430816Y486076D01*
X434524D01*
Y492198D01*
X434604Y492600D01*
X434524Y493002D01*
Y500124D01*
D02*
G37*
G36*
X77024Y492124D02*
X63976D01*
Y485002D01*
X63896Y484600D01*
X63976Y484198D01*
Y478076D01*
X67684D01*
X78235Y467525D01*
X80378Y466094D01*
X82905Y465591D01*
X88376D01*
X88471Y465496D01*
X90613Y464065D01*
X93140Y463562D01*
X94500D01*
X97027Y464065D01*
X99170Y465496D01*
X100601Y467639D01*
X101104Y470166D01*
X100601Y472693D01*
X99170Y474836D01*
X97027Y476267D01*
X96217Y476428D01*
X95781Y476865D01*
X93638Y478296D01*
X91111Y478799D01*
X85640D01*
X77024Y487415D01*
Y492124D01*
D02*
G37*
G36*
X34977Y468844D02*
X22023D01*
X17451Y464272D01*
Y455128D01*
X22023Y450556D01*
X34977D01*
X38424Y454002D01*
X46976D01*
Y452676D01*
X60024D01*
Y466724D01*
X46976D01*
Y465397D01*
X38424D01*
X34977Y468844D01*
D02*
G37*
G36*
X480977Y451444D02*
X468023D01*
X464576Y447998D01*
X451524D01*
Y449324D01*
X438476D01*
Y435276D01*
X451524D01*
Y436603D01*
X464576D01*
X468023Y433156D01*
X480977D01*
X485549Y437728D01*
Y446872D01*
X480977Y451444D01*
D02*
G37*
G36*
X434524Y474724D02*
X421476D01*
Y470015D01*
X413365Y461904D01*
X407478D01*
X404951Y461401D01*
X402808Y459970D01*
X401580Y458742D01*
X400149Y456599D01*
X399646Y454072D01*
X400149Y451545D01*
X401580Y449402D01*
X403723Y447971D01*
X406250Y447468D01*
X408777Y447971D01*
X409863Y448696D01*
X416100D01*
X418628Y449199D01*
X420770Y450630D01*
X430816Y460676D01*
X434524D01*
Y466798D01*
X434604Y467200D01*
X434524Y467602D01*
Y474724D01*
D02*
G37*
G36*
X283750Y479644D02*
X282164Y479328D01*
X280820Y478430D01*
X279922Y477086D01*
X279606Y475500D01*
X279922Y473914D01*
X280820Y472570D01*
X282164Y471672D01*
X283750Y471356D01*
X283846Y471375D01*
X308000Y447222D01*
X308000Y447222D01*
X308924Y446604D01*
X310014Y446387D01*
X310191D01*
X310570Y445820D01*
X311914Y444922D01*
X313500Y444606D01*
X315086Y444922D01*
X316430Y445820D01*
X317328Y447164D01*
X317644Y448750D01*
X317328Y450336D01*
X316430Y451680D01*
X315086Y452578D01*
X313500Y452894D01*
X311914Y452578D01*
X311187Y452092D01*
X287875Y475404D01*
X287894Y475500D01*
X287578Y477086D01*
X286680Y478430D01*
X285336Y479328D01*
X283750Y479644D01*
D02*
G37*
G36*
X267000Y462894D02*
X265414Y462578D01*
X264070Y461680D01*
X263172Y460336D01*
X262856Y458750D01*
X263172Y457164D01*
X264070Y455820D01*
X265414Y454922D01*
X266363Y454733D01*
X272729Y448367D01*
X272606Y447750D01*
X272922Y446164D01*
X273820Y444820D01*
X275164Y443922D01*
X276750Y443606D01*
X278336Y443922D01*
X279680Y444820D01*
X280578Y446164D01*
X280894Y447750D01*
X280578Y449336D01*
X279680Y450680D01*
X278336Y451578D01*
X277387Y451767D01*
X271021Y458133D01*
X271144Y458750D01*
X270828Y460336D01*
X269930Y461680D01*
X268586Y462578D01*
X267000Y462894D01*
D02*
G37*
G36*
X167250Y447343D02*
X165155Y447067D01*
X163203Y446259D01*
X161527Y444973D01*
X160241Y443297D01*
X159841Y442332D01*
X157774D01*
Y443774D01*
X149726D01*
Y434726D01*
X157774D01*
Y436168D01*
X159841D01*
X160241Y435203D01*
X161527Y433527D01*
X163203Y432241D01*
X165155Y431432D01*
X167250Y431157D01*
X169345Y431432D01*
X171297Y432241D01*
X172973Y433527D01*
X174259Y435203D01*
X175067Y437155D01*
X175343Y439250D01*
X175067Y441345D01*
X174259Y443297D01*
X172973Y444973D01*
X171297Y446259D01*
X169345Y447067D01*
X167250Y447343D01*
D02*
G37*
G36*
X77024Y466724D02*
X63976D01*
Y459602D01*
X63896Y459200D01*
X63976Y458798D01*
Y452676D01*
X67684D01*
X80614Y439746D01*
X82757Y438315D01*
X85284Y437812D01*
X93750D01*
X96277Y438315D01*
X98420Y439746D01*
X99851Y441889D01*
X100354Y444416D01*
X99851Y446943D01*
X98420Y449086D01*
X96277Y450517D01*
X93750Y451020D01*
X88019D01*
X77024Y462015D01*
Y466724D01*
D02*
G37*
G36*
X256500Y452894D02*
X254914Y452578D01*
X253570Y451680D01*
X252672Y450336D01*
X252356Y448750D01*
X252672Y447164D01*
X253570Y445820D01*
X254357Y445294D01*
X253972Y444024D01*
X250476D01*
Y432976D01*
X262524D01*
Y444024D01*
X259028D01*
X258643Y445294D01*
X259430Y445820D01*
X260328Y447164D01*
X260644Y448750D01*
X260328Y450336D01*
X259430Y451680D01*
X258086Y452578D01*
X256500Y452894D01*
D02*
G37*
G36*
X34977Y443444D02*
X22023D01*
X17451Y438872D01*
Y429728D01*
X22023Y425156D01*
X34977D01*
X38424Y428602D01*
X46976D01*
Y427276D01*
X60024D01*
Y441324D01*
X46976D01*
Y439997D01*
X38424D01*
X34977Y443444D01*
D02*
G37*
G36*
X337274Y436024D02*
X326226D01*
Y430872D01*
X326053Y430000D01*
Y417750D01*
X326226Y416878D01*
Y411726D01*
X337274D01*
Y414668D01*
X342797D01*
X343914Y413922D01*
X345500Y413606D01*
X347086Y413922D01*
X348430Y414820D01*
X349328Y416164D01*
X349644Y417750D01*
X349328Y419336D01*
X348430Y420680D01*
X347086Y421578D01*
X345500Y421894D01*
X343914Y421578D01*
X342797Y420832D01*
X337448D01*
Y426918D01*
X342797D01*
X343914Y426172D01*
X345500Y425856D01*
X347086Y426172D01*
X348430Y427070D01*
X349328Y428414D01*
X349644Y430000D01*
X349328Y431586D01*
X348430Y432930D01*
X347086Y433828D01*
X345500Y434144D01*
X343914Y433828D01*
X342797Y433082D01*
X337274D01*
Y436024D01*
D02*
G37*
G36*
X480977Y426044D02*
X468023D01*
X464576Y422598D01*
X451524D01*
Y423924D01*
X438476D01*
Y409876D01*
X451524D01*
Y411203D01*
X464576D01*
X468023Y407756D01*
X480977D01*
X485549Y412328D01*
Y421472D01*
X480977Y426044D01*
D02*
G37*
G36*
X434524Y449324D02*
X421476D01*
Y444615D01*
X413365Y436504D01*
X407716D01*
X405189Y436001D01*
X403047Y434570D01*
X401580Y433103D01*
X400149Y430961D01*
X399646Y428434D01*
X400149Y425906D01*
X401580Y423764D01*
X403723Y422332D01*
X406250Y421830D01*
X408777Y422332D01*
X410219Y423296D01*
X416100D01*
X418628Y423799D01*
X420770Y425230D01*
X430816Y435276D01*
X434524D01*
Y441398D01*
X434604Y441800D01*
X434524Y442202D01*
Y449324D01*
D02*
G37*
G36*
X77024Y441324D02*
X63976D01*
Y434202D01*
X63896Y433800D01*
X63976Y433398D01*
Y427276D01*
X67684D01*
X78958Y416002D01*
X81101Y414571D01*
X83628Y414068D01*
X93750D01*
X96277Y414571D01*
X98420Y416002D01*
X99851Y418145D01*
X100354Y420672D01*
X99851Y423199D01*
X98420Y425342D01*
X96277Y426773D01*
X93750Y427276D01*
X86363D01*
X77024Y436615D01*
Y441324D01*
D02*
G37*
G36*
X167250Y416343D02*
X165155Y416068D01*
X163203Y415259D01*
X161527Y413973D01*
X160241Y412297D01*
X159841Y411332D01*
X157774D01*
Y412774D01*
X149726D01*
Y403726D01*
X157774D01*
Y405168D01*
X159841D01*
X160241Y404203D01*
X161527Y402527D01*
X163203Y401241D01*
X165155Y400433D01*
X167250Y400157D01*
X169345Y400433D01*
X171297Y401241D01*
X172973Y402527D01*
X174259Y404203D01*
X175067Y406155D01*
X175343Y408250D01*
X175067Y410345D01*
X174259Y412297D01*
X172973Y413973D01*
X171297Y415259D01*
X169345Y416068D01*
X167250Y416343D01*
D02*
G37*
G36*
X34977Y418044D02*
X22023D01*
X17451Y413472D01*
Y404328D01*
X22023Y399756D01*
X34977D01*
X38424Y403203D01*
X46976D01*
Y401876D01*
X60024D01*
Y415924D01*
X46976D01*
Y414598D01*
X38424D01*
X34977Y418044D01*
D02*
G37*
G36*
X480977Y400644D02*
X468023D01*
X464576Y397197D01*
X451524D01*
Y398524D01*
X438476D01*
Y384476D01*
X451524D01*
Y385802D01*
X464576D01*
X468023Y382356D01*
X480977D01*
X485549Y386928D01*
Y396072D01*
X480977Y400644D01*
D02*
G37*
G36*
X434524Y423924D02*
X421476D01*
Y419215D01*
X413365Y411104D01*
X407584D01*
X405057Y410601D01*
X402914Y409170D01*
X401580Y407836D01*
X400149Y405693D01*
X399646Y403166D01*
X400149Y400639D01*
X401580Y398496D01*
X403723Y397065D01*
X406250Y396562D01*
X408777Y397065D01*
X410021Y397896D01*
X416100D01*
X418628Y398399D01*
X420770Y399830D01*
X430816Y409876D01*
X434524D01*
Y415998D01*
X434604Y416400D01*
X434524Y416802D01*
Y423924D01*
D02*
G37*
G36*
X77024Y415924D02*
X63976D01*
Y408802D01*
X63896Y408400D01*
X63976Y407998D01*
Y401876D01*
X67684D01*
X78958Y390602D01*
X81101Y389171D01*
X83628Y388668D01*
X93750D01*
X96277Y389171D01*
X98420Y390602D01*
X99851Y392745D01*
X100354Y395272D01*
X99851Y397799D01*
X98420Y399942D01*
X96277Y401373D01*
X93750Y401876D01*
X86363D01*
X77024Y411215D01*
Y415924D01*
D02*
G37*
G36*
X34977Y392644D02*
X22023D01*
X17451Y388072D01*
Y378928D01*
X22023Y374356D01*
X34977D01*
X38424Y377803D01*
X46976D01*
Y376476D01*
X60024D01*
Y390524D01*
X46976D01*
Y389198D01*
X38424D01*
X34977Y392644D01*
D02*
G37*
G36*
X480977Y375244D02*
X468023D01*
X464576Y371797D01*
X451524D01*
Y373124D01*
X438476D01*
Y359076D01*
X451524D01*
Y360402D01*
X464576D01*
X468023Y356956D01*
X480977D01*
X485549Y361528D01*
Y370672D01*
X480977Y375244D01*
D02*
G37*
G36*
X434524Y398524D02*
X421476D01*
Y393815D01*
X413365Y385704D01*
X407434D01*
X404907Y385201D01*
X402764Y383770D01*
X401580Y382586D01*
X400149Y380443D01*
X399646Y377916D01*
X400149Y375389D01*
X401580Y373246D01*
X403723Y371815D01*
X406250Y371312D01*
X408777Y371815D01*
X409797Y372496D01*
X416100D01*
X418628Y372999D01*
X420770Y374430D01*
X430816Y384476D01*
X434524D01*
Y390598D01*
X434604Y391000D01*
X434524Y391402D01*
Y398524D01*
D02*
G37*
G36*
X77024Y390524D02*
X63976D01*
Y383402D01*
X63896Y383000D01*
X63976Y382598D01*
Y376476D01*
X67684D01*
X78958Y365202D01*
X81101Y363771D01*
X83628Y363268D01*
X93750D01*
X96277Y363771D01*
X98420Y365202D01*
X99851Y367345D01*
X100354Y369872D01*
X99851Y372399D01*
X98420Y374542D01*
X96277Y375973D01*
X93750Y376476D01*
X86363D01*
X77024Y385815D01*
Y390524D01*
D02*
G37*
G36*
X212437Y408144D02*
X206813D01*
X206498Y408082D01*
X181750D01*
X180571Y407847D01*
X179571Y407179D01*
X148711Y376319D01*
X148043Y375319D01*
X147808Y374140D01*
Y372696D01*
X147437Y372647D01*
X144817Y371561D01*
X142566Y369834D01*
X140839Y367583D01*
X139753Y364963D01*
X139383Y362150D01*
X139753Y359337D01*
X140839Y356716D01*
X142566Y354466D01*
X144817Y352739D01*
X147437Y351653D01*
X150250Y351283D01*
X153063Y351653D01*
X155683Y352739D01*
X157934Y354466D01*
X159661Y356716D01*
X160747Y359337D01*
X161117Y362150D01*
X160747Y364963D01*
X159661Y367583D01*
X157934Y369834D01*
X155683Y371561D01*
X154789Y371932D01*
X154524Y373416D01*
X183027Y401918D01*
X206750D01*
X207065Y401981D01*
X211161D01*
X215871Y397271D01*
Y392361D01*
X216106Y391181D01*
X216774Y390182D01*
X221861Y385094D01*
X222589Y384608D01*
X222638Y383775D01*
X222620Y383566D01*
X222542Y383286D01*
X222384Y383141D01*
X221320Y382430D01*
X220422Y381086D01*
X220106Y379500D01*
X220422Y377914D01*
X221320Y376570D01*
X222403Y375847D01*
X222577Y374854D01*
X222529Y374404D01*
X221820Y373930D01*
X220922Y372586D01*
X220606Y371000D01*
X220922Y369414D01*
X221820Y368070D01*
X223164Y367172D01*
X224750Y366856D01*
X225041Y366914D01*
X225383Y366572D01*
X226383Y365904D01*
X227562Y365670D01*
X230819D01*
X230976Y364878D01*
Y359726D01*
X242024D01*
Y364878D01*
X242197Y365750D01*
Y378000D01*
X242024Y378872D01*
Y384024D01*
X242024D01*
Y384226D01*
X242024D01*
Y396274D01*
X230976D01*
Y393331D01*
X229000D01*
X227820Y393097D01*
X226821Y392429D01*
X225217Y390825D01*
X224908Y390764D01*
X222035Y393637D01*
Y398547D01*
X221800Y399727D01*
X221132Y400726D01*
X214617Y407242D01*
X213617Y407910D01*
X212437Y408144D01*
D02*
G37*
G36*
X34977Y367244D02*
X22023D01*
X17451Y362672D01*
Y353528D01*
X22023Y348956D01*
X34977D01*
X38424Y352402D01*
X46976D01*
Y351076D01*
X60024D01*
Y365124D01*
X46976D01*
Y363797D01*
X38424D01*
X34977Y367244D01*
D02*
G37*
G36*
X480977Y349844D02*
X468023D01*
X464576Y346398D01*
X451524D01*
Y347724D01*
X438476D01*
Y333676D01*
X451524D01*
Y335003D01*
X464576D01*
X468023Y331556D01*
X480977D01*
X485549Y336128D01*
Y345272D01*
X480977Y349844D01*
D02*
G37*
G36*
X434524Y373124D02*
X421476D01*
Y368415D01*
X413365Y360304D01*
X407534D01*
X405007Y359801D01*
X402864Y358370D01*
X401580Y357086D01*
X400149Y354943D01*
X399646Y352416D01*
X400149Y349889D01*
X401580Y347746D01*
X403723Y346315D01*
X406250Y345812D01*
X408777Y346315D01*
X409947Y347096D01*
X416100D01*
X418628Y347599D01*
X420770Y349030D01*
X430816Y359076D01*
X434524D01*
Y365198D01*
X434604Y365600D01*
X434524Y366002D01*
Y373124D01*
D02*
G37*
G36*
X77024Y365124D02*
X63976D01*
Y358002D01*
X63896Y357600D01*
X63976Y357198D01*
Y351076D01*
X67684D01*
X79264Y339496D01*
X81407Y338065D01*
X83934Y337562D01*
X93750D01*
X96277Y338065D01*
X98420Y339496D01*
X99851Y341639D01*
X100354Y344166D01*
X99851Y346693D01*
X98420Y348836D01*
X96277Y350267D01*
X93750Y350770D01*
X86669D01*
X77024Y360415D01*
Y365124D01*
D02*
G37*
G36*
X323750Y348447D02*
X311500D01*
X310628Y348274D01*
X305476D01*
Y337226D01*
X308418D01*
Y333453D01*
X307672Y332336D01*
X307356Y330750D01*
X307672Y329164D01*
X308570Y327820D01*
X309914Y326922D01*
X311500Y326606D01*
X313086Y326922D01*
X314430Y327820D01*
X315328Y329164D01*
X315644Y330750D01*
X315328Y332336D01*
X314582Y333453D01*
Y337052D01*
X320418D01*
Y333453D01*
X319672Y332336D01*
X319356Y330750D01*
X319672Y329164D01*
X320570Y327820D01*
X321914Y326922D01*
X323500Y326606D01*
X325086Y326922D01*
X326430Y327820D01*
X327328Y329164D01*
X327644Y330750D01*
X327328Y332336D01*
X326582Y333453D01*
Y337226D01*
X329774D01*
Y348274D01*
X324622D01*
X323750Y348447D01*
D02*
G37*
G36*
X34977Y341844D02*
X22023D01*
X17451Y337272D01*
Y328128D01*
X22023Y323556D01*
X34977D01*
X38424Y327002D01*
X46976D01*
Y325676D01*
X60024D01*
Y339724D01*
X46976D01*
Y338397D01*
X38424D01*
X34977Y341844D01*
D02*
G37*
G36*
X480977Y324444D02*
X468023D01*
X464576Y320998D01*
X451524D01*
Y322324D01*
X438476D01*
Y308276D01*
X451524D01*
Y309603D01*
X464576D01*
X468023Y306156D01*
X480977D01*
X485549Y310728D01*
Y319872D01*
X480977Y324444D01*
D02*
G37*
G36*
X434524Y347724D02*
X421476D01*
Y343015D01*
X411981Y333520D01*
X406250D01*
X403723Y333017D01*
X401580Y331586D01*
X400149Y329443D01*
X399646Y326916D01*
X400149Y324389D01*
X401580Y322246D01*
X403723Y320815D01*
X406250Y320312D01*
X414716D01*
X417244Y320815D01*
X419386Y322246D01*
X430816Y333676D01*
X434524D01*
Y339798D01*
X434604Y340200D01*
Y340700D01*
X434524Y341102D01*
Y347724D01*
D02*
G37*
G36*
X77024Y339724D02*
X63976D01*
Y332602D01*
X63896Y332200D01*
X63976Y331798D01*
Y325676D01*
X67684D01*
X78919Y314441D01*
X81062Y313010D01*
X83589Y312507D01*
X93750D01*
X96277Y313010D01*
X98420Y314441D01*
X99851Y316584D01*
X100354Y319111D01*
X99851Y321638D01*
X98420Y323781D01*
X96277Y325212D01*
X93750Y325715D01*
X86324D01*
X77024Y335015D01*
Y339724D01*
D02*
G37*
G36*
X34977Y316444D02*
X22023D01*
X17451Y311872D01*
Y302728D01*
X22023Y298156D01*
X34977D01*
X38424Y301602D01*
X46976D01*
Y300276D01*
X60024D01*
Y314324D01*
X46976D01*
Y312997D01*
X38424D01*
X34977Y316444D01*
D02*
G37*
G36*
X480977Y299044D02*
X468023D01*
X464576Y295597D01*
X451524D01*
Y296924D01*
X438476D01*
Y282876D01*
X451524D01*
Y284202D01*
X464576D01*
X468023Y280756D01*
X480977D01*
X485549Y285328D01*
Y294472D01*
X480977Y299044D01*
D02*
G37*
G36*
X434524Y322324D02*
X421476D01*
Y317615D01*
X413365Y309504D01*
X407484D01*
X404957Y309001D01*
X402814Y307570D01*
X401580Y306336D01*
X400149Y304193D01*
X399646Y301666D01*
X400149Y299139D01*
X401580Y296996D01*
X403723Y295565D01*
X406250Y295062D01*
X408777Y295565D01*
X409872Y296296D01*
X416100D01*
X418628Y296799D01*
X420770Y298230D01*
X430816Y308276D01*
X434524D01*
Y314398D01*
X434604Y314800D01*
X434524Y315202D01*
Y322324D01*
D02*
G37*
G36*
X77024Y314324D02*
X63976D01*
Y307202D01*
X63896Y306800D01*
X63976Y306398D01*
Y300276D01*
X67684D01*
X79964Y287996D01*
X82107Y286565D01*
X84634Y286062D01*
X93750D01*
X96277Y286565D01*
X98420Y287996D01*
X99851Y290139D01*
X100354Y292666D01*
X99851Y295193D01*
X98420Y297336D01*
X96277Y298767D01*
X93750Y299270D01*
X87369D01*
X77024Y309615D01*
Y314324D01*
D02*
G37*
G36*
X34977Y291044D02*
X22023D01*
X17451Y286472D01*
Y277328D01*
X22023Y272756D01*
X34977D01*
X38424Y276203D01*
X46976D01*
Y274876D01*
X60024D01*
Y288924D01*
X46976D01*
Y287598D01*
X38424D01*
X34977Y291044D01*
D02*
G37*
G36*
X480977Y273644D02*
X468023D01*
X464576Y270198D01*
X451524D01*
Y271524D01*
X438476D01*
Y257476D01*
X451524D01*
Y258803D01*
X464576D01*
X468023Y255356D01*
X480977D01*
X485549Y259928D01*
Y269072D01*
X480977Y273644D01*
D02*
G37*
G36*
X434524Y296924D02*
X421476D01*
Y292215D01*
X411615Y282354D01*
X405500D01*
X402973Y281851D01*
X400830Y280420D01*
X399399Y278277D01*
X398896Y275750D01*
X399399Y273223D01*
X400830Y271080D01*
X402973Y269649D01*
X405500Y269146D01*
X414350D01*
X416878Y269649D01*
X419020Y271080D01*
X430816Y282876D01*
X434524D01*
Y288998D01*
X434604Y289400D01*
X434524Y289802D01*
Y296924D01*
D02*
G37*
G36*
X77024Y288924D02*
X63976D01*
Y281802D01*
X63896Y281400D01*
X63976Y280998D01*
Y274876D01*
X67684D01*
X79814Y262746D01*
X81957Y261315D01*
X84484Y260812D01*
X93750D01*
X96277Y261315D01*
X98420Y262746D01*
X99851Y264889D01*
X100354Y267416D01*
X99851Y269943D01*
X98420Y272086D01*
X96277Y273517D01*
X93750Y274020D01*
X87219D01*
X77024Y284215D01*
Y288924D01*
D02*
G37*
G36*
X34977Y265644D02*
X22023D01*
X17451Y261072D01*
Y251928D01*
X22023Y247356D01*
X34977D01*
X38424Y250802D01*
X46976D01*
Y249476D01*
X60024D01*
Y263524D01*
X46976D01*
Y262197D01*
X38424D01*
X34977Y265644D01*
D02*
G37*
G36*
X480977Y248244D02*
X468023D01*
X464576Y244797D01*
X451524D01*
Y246124D01*
X438476D01*
Y232076D01*
X451524D01*
Y233403D01*
X464576D01*
X468023Y229956D01*
X480977D01*
X485549Y234528D01*
Y243672D01*
X480977Y248244D01*
D02*
G37*
G36*
X434524Y271524D02*
X421476D01*
Y266815D01*
X413365Y258704D01*
X407478D01*
X404951Y258201D01*
X402808Y256770D01*
X401580Y255542D01*
X400149Y253399D01*
X399646Y250872D01*
X400149Y248345D01*
X401580Y246202D01*
X403723Y244771D01*
X406250Y244268D01*
X408777Y244771D01*
X409863Y245496D01*
X416100D01*
X418628Y245999D01*
X420770Y247430D01*
X430816Y257476D01*
X434524D01*
Y263598D01*
X434604Y264000D01*
X434524Y264402D01*
Y271524D01*
D02*
G37*
G36*
X77024Y263524D02*
X63976D01*
Y256402D01*
X63896Y256000D01*
X63976Y255598D01*
Y249476D01*
X67684D01*
X79414Y237746D01*
X81557Y236315D01*
X84084Y235812D01*
X93750D01*
X96277Y236315D01*
X98420Y237746D01*
X99851Y239889D01*
X100354Y242416D01*
X99851Y244943D01*
X98420Y247086D01*
X96277Y248517D01*
X93750Y249020D01*
X86819D01*
X77024Y258815D01*
Y263524D01*
D02*
G37*
G36*
X34977Y240244D02*
X22023D01*
X17451Y235672D01*
Y226528D01*
X22023Y221956D01*
X34977D01*
X38424Y225403D01*
X46976D01*
Y224076D01*
X60024D01*
Y238124D01*
X46976D01*
Y236798D01*
X38424D01*
X34977Y240244D01*
D02*
G37*
G36*
X480977Y222844D02*
X468023D01*
X464576Y219398D01*
X451524D01*
Y220724D01*
X438476D01*
Y206676D01*
X451524D01*
Y208002D01*
X464576D01*
X468023Y204556D01*
X480977D01*
X485549Y209128D01*
Y218272D01*
X480977Y222844D01*
D02*
G37*
G36*
X434524Y246124D02*
X421476D01*
Y241415D01*
X413365Y233304D01*
X407478D01*
X404951Y232801D01*
X402808Y231370D01*
X401580Y230142D01*
X400149Y227999D01*
X399646Y225472D01*
X400149Y222945D01*
X401580Y220802D01*
X403723Y219371D01*
X406250Y218868D01*
X408777Y219371D01*
X409863Y220096D01*
X416100D01*
X418628Y220599D01*
X420770Y222030D01*
X430816Y232076D01*
X434524D01*
Y238198D01*
X434604Y238600D01*
X434524Y239002D01*
Y246124D01*
D02*
G37*
G36*
X77024Y238124D02*
X63976D01*
Y231002D01*
X63896Y230600D01*
X63976Y230198D01*
Y224076D01*
X67684D01*
X79264Y212496D01*
X81407Y211065D01*
X83934Y210562D01*
X93750D01*
X96277Y211065D01*
X98420Y212496D01*
X99851Y214639D01*
X100354Y217166D01*
X99851Y219693D01*
X98420Y221836D01*
X96277Y223267D01*
X93750Y223770D01*
X86669D01*
X77024Y233415D01*
Y238124D01*
D02*
G37*
G36*
X34977Y214844D02*
X22023D01*
X17451Y210272D01*
Y201128D01*
X22023Y196556D01*
X34977D01*
X38424Y200002D01*
X46976D01*
Y198676D01*
X60024D01*
Y212724D01*
X46976D01*
Y211397D01*
X38424D01*
X34977Y214844D01*
D02*
G37*
G36*
X480977Y197444D02*
X468023D01*
X464576Y193997D01*
X451524D01*
Y195324D01*
X438476D01*
Y181276D01*
X451524D01*
Y182603D01*
X464576D01*
X468023Y179156D01*
X480977D01*
X485549Y183728D01*
Y192872D01*
X480977Y197444D01*
D02*
G37*
G36*
X434524Y220724D02*
X421476D01*
Y216015D01*
X413365Y207904D01*
X407478D01*
X404951Y207401D01*
X402808Y205970D01*
X401580Y204742D01*
X400149Y202599D01*
X399646Y200072D01*
X400149Y197545D01*
X401580Y195402D01*
X403723Y193971D01*
X406250Y193468D01*
X408777Y193971D01*
X409863Y194696D01*
X416100D01*
X418628Y195199D01*
X420770Y196630D01*
X430816Y206676D01*
X434524D01*
Y212798D01*
X434604Y213200D01*
X434524Y213602D01*
Y220724D01*
D02*
G37*
G36*
X77024Y212724D02*
X63976D01*
Y205602D01*
X63896Y205200D01*
X63976Y204798D01*
Y198676D01*
X67684D01*
X78480Y187880D01*
X80623Y186449D01*
X83150Y185946D01*
X90376D01*
X90573Y185815D01*
X93100Y185312D01*
X93750D01*
X96277Y185815D01*
X98420Y187246D01*
X99851Y189389D01*
X100354Y191916D01*
X99851Y194443D01*
X98420Y196586D01*
X96277Y198017D01*
X95800Y198112D01*
X94993Y198651D01*
X92466Y199154D01*
X85885D01*
X77024Y208015D01*
Y212724D01*
D02*
G37*
G36*
X34977Y189444D02*
X22023D01*
X17451Y184872D01*
Y175728D01*
X22023Y171156D01*
X34977D01*
X38424Y174603D01*
X46976D01*
Y173276D01*
X60024D01*
Y187324D01*
X46976D01*
Y185998D01*
X38424D01*
X34977Y189444D01*
D02*
G37*
G36*
X480977Y172044D02*
X468023D01*
X464576Y168598D01*
X451524D01*
Y169924D01*
X438476D01*
Y155876D01*
X451524D01*
Y157203D01*
X464576D01*
X468023Y153756D01*
X480977D01*
X485549Y158328D01*
Y167472D01*
X480977Y172044D01*
D02*
G37*
G36*
X434524Y195324D02*
X421476D01*
Y190615D01*
X411965Y181104D01*
X404500D01*
X401973Y180601D01*
X399830Y179170D01*
X398399Y177027D01*
X397896Y174500D01*
X398399Y171973D01*
X399830Y169830D01*
X401973Y168399D01*
X404500Y167896D01*
X414700D01*
X417228Y168399D01*
X419370Y169830D01*
X430816Y181276D01*
X434524D01*
Y187398D01*
X434604Y187800D01*
X434524Y188202D01*
Y195324D01*
D02*
G37*
G36*
X77024Y187324D02*
X63976D01*
Y180202D01*
X63896Y179800D01*
X63976Y179398D01*
Y173276D01*
X67684D01*
X80214Y160746D01*
X82357Y159315D01*
X84884Y158812D01*
X93750D01*
X96277Y159315D01*
X98420Y160746D01*
X99851Y162889D01*
X100354Y165416D01*
X99851Y167943D01*
X98420Y170086D01*
X96277Y171517D01*
X93750Y172020D01*
X87619D01*
X77024Y182615D01*
Y187324D01*
D02*
G37*
G36*
X34977Y164044D02*
X22023D01*
X17451Y159472D01*
Y150328D01*
X22023Y145756D01*
X34977D01*
X38424Y149202D01*
X46976D01*
Y147876D01*
X60024D01*
Y161924D01*
X46976D01*
Y160597D01*
X38424D01*
X34977Y164044D01*
D02*
G37*
G36*
X434524Y169924D02*
X421476D01*
Y165215D01*
X413365Y157104D01*
X407584D01*
X405057Y156601D01*
X402914Y155170D01*
X401580Y153836D01*
X400149Y151693D01*
X399646Y149166D01*
X400149Y146639D01*
X401580Y144496D01*
X403723Y143065D01*
X406250Y142562D01*
X408777Y143065D01*
X410021Y143896D01*
X416100D01*
X418628Y144399D01*
X420770Y145830D01*
X430816Y155876D01*
X434524D01*
Y161998D01*
X434604Y162400D01*
Y162900D01*
X434524Y163302D01*
Y169924D01*
D02*
G37*
G36*
X77024Y161924D02*
X63976D01*
Y155302D01*
X63896Y154900D01*
Y154400D01*
X63976Y153998D01*
Y147876D01*
X67684D01*
X80064Y135496D01*
X82207Y134065D01*
X84734Y133562D01*
X93750D01*
X96277Y134065D01*
X98420Y135496D01*
X99851Y137639D01*
X100354Y140166D01*
X99851Y142693D01*
X98420Y144836D01*
X96277Y146267D01*
X93750Y146770D01*
X87469D01*
X77024Y157215D01*
Y161924D01*
D02*
G37*
%LPD*%
D14*
X335250Y449500D02*
Y477750D01*
X344750Y487250D01*
X283750Y475500D02*
X310014Y449236D01*
X313014D02*
X313500Y448750D01*
X310014Y449236D02*
X313014D01*
X267000Y458125D02*
X276750Y448375D01*
Y447750D02*
Y448375D01*
X267000Y458125D02*
Y458750D01*
D26*
X428000Y162900D02*
D03*
X445000D02*
D03*
X428000Y188300D02*
D03*
X445000D02*
D03*
X428000Y213700D02*
D03*
X445000D02*
D03*
X428000Y239100D02*
D03*
X445000D02*
D03*
X428000Y264500D02*
D03*
X445000D02*
D03*
X428000Y289900D02*
D03*
X445000D02*
D03*
X428000Y315300D02*
D03*
X445000D02*
D03*
X428000Y340700D02*
D03*
X445000D02*
D03*
X428000Y366100D02*
D03*
X445000D02*
D03*
X428000Y391500D02*
D03*
X445000D02*
D03*
X428000Y416900D02*
D03*
X445000D02*
D03*
X428000Y442300D02*
D03*
X445000D02*
D03*
X428000Y467700D02*
D03*
X445000D02*
D03*
X428000Y493100D02*
D03*
X445000D02*
D03*
X428000Y518500D02*
D03*
X445000D02*
D03*
X428000Y543900D02*
D03*
X445000D02*
D03*
X53500Y154900D02*
D03*
X70500D02*
D03*
X53500Y180300D02*
D03*
X70500D02*
D03*
Y205700D02*
D03*
X53500D02*
D03*
X70500Y231100D02*
D03*
X53500D02*
D03*
X70500Y256500D02*
D03*
X53500D02*
D03*
X70500Y281900D02*
D03*
X53500D02*
D03*
X70500Y307300D02*
D03*
X53500D02*
D03*
X70500Y383500D02*
D03*
X53500D02*
D03*
X70500Y358100D02*
D03*
X53500D02*
D03*
X70500Y408900D02*
D03*
X53500D02*
D03*
X70500Y434300D02*
D03*
X53500D02*
D03*
X70500Y459700D02*
D03*
X53500D02*
D03*
X70500Y485100D02*
D03*
X53500D02*
D03*
X70500Y332700D02*
D03*
X53500D02*
D03*
D49*
X407478Y252100D02*
X416100D01*
X406250Y250872D02*
X407478Y252100D01*
X93140Y470166D02*
X94500D01*
X91111Y472195D02*
X93140Y470166D01*
X82905Y472195D02*
X91111D01*
X70500Y484600D02*
X82905Y472195D01*
X406250Y479416D02*
X407534Y480700D01*
X416100D01*
X407684Y506100D02*
X416100D01*
X406250Y504666D02*
X407684Y506100D01*
X406250Y529916D02*
X407834Y531500D01*
X416100D01*
X428000Y543400D01*
X407478Y455300D02*
X416100D01*
X406250Y454072D02*
X407478Y455300D01*
X407716Y429900D02*
X416100D01*
X406250Y428434D02*
X407716Y429900D01*
X407584Y404500D02*
X416100D01*
X406250Y403166D02*
X407584Y404500D01*
X406250Y377916D02*
X407434Y379100D01*
X416100D01*
X407534Y353700D02*
X416100D01*
X406250Y352416D02*
X407534Y353700D01*
X406250Y326916D02*
X414716D01*
X428000Y340200D02*
Y340700D01*
X414716Y326916D02*
X428000Y340200D01*
X406250Y301666D02*
X407484Y302900D01*
X416100D01*
X405500Y275750D02*
X414350D01*
X428000Y289400D01*
X406250Y149166D02*
X407584Y150500D01*
X416100D01*
X406250Y225472D02*
X407478Y226700D01*
X416100D01*
X406250Y200072D02*
X407478Y201300D01*
X416100D01*
X404500Y174500D02*
X414700D01*
X428000Y187800D01*
X85284Y444416D02*
X93750D01*
X70500Y459200D02*
X85284Y444416D01*
X83628Y420672D02*
X93750D01*
X70500Y433800D02*
X83628Y420672D01*
Y369872D02*
X93750D01*
X70500Y383000D02*
X83628Y369872D01*
Y395272D02*
X93750D01*
X70500Y408400D02*
X83628Y395272D01*
X70500Y357600D02*
X83934Y344166D01*
X93750D01*
X83589Y319111D02*
X93750D01*
X70500Y332200D02*
X83589Y319111D01*
X83934Y217166D02*
X93750D01*
X70500Y230600D02*
X83934Y217166D01*
X70500Y256000D02*
X84084Y242416D01*
X93750D01*
X84884Y165416D02*
X93750D01*
X70500Y179800D02*
X84884Y165416D01*
X92466Y192550D02*
X93100Y191916D01*
X93750D01*
X84634Y292666D02*
X93750D01*
X70500Y306800D02*
X84634Y292666D01*
X84484Y267416D02*
X93750D01*
X70500Y281400D02*
X84484Y267416D01*
X84734Y140166D02*
X93750D01*
X70500Y154400D02*
X84734Y140166D01*
X70500Y154400D02*
Y154900D01*
X83150Y192550D02*
X92466D01*
X70500Y205200D02*
X83150Y192550D01*
X416100Y506100D02*
X428000Y518000D01*
X416100Y480700D02*
X428000Y492600D01*
X416100Y455300D02*
X428000Y467200D01*
X416100Y429900D02*
X428000Y441800D01*
X416100Y404500D02*
X428000Y416400D01*
X416100Y379100D02*
X428000Y391000D01*
X416100Y353700D02*
X428000Y365600D01*
X416100Y302900D02*
X428000Y314800D01*
X416100Y252100D02*
X428000Y264000D01*
X416100Y226700D02*
X428000Y238600D01*
X416100Y201300D02*
X428000Y213200D01*
Y162400D02*
Y162900D01*
X416100Y150500D02*
X428000Y162400D01*
D50*
X445000Y416900D02*
X474500D01*
X445000Y442300D02*
X474500D01*
X445000Y366100D02*
X474500D01*
X445000Y391500D02*
X474500D01*
X445000Y340700D02*
X474500D01*
X445000Y315300D02*
X474500D01*
X445000Y518500D02*
X474500D01*
X445000Y543900D02*
X474500D01*
X445000Y493100D02*
X474500D01*
X445000Y467700D02*
X474500D01*
X445000Y264500D02*
X474500D01*
X445000Y289900D02*
X474500D01*
X445000Y213700D02*
X474500D01*
X445000Y239100D02*
X474500D01*
X445000Y188300D02*
X474500D01*
X445000Y162900D02*
X474500D01*
X28500Y485100D02*
X53500D01*
X28500Y459700D02*
X53500D01*
X28500Y434300D02*
X53500D01*
X28500Y408900D02*
X53500D01*
X28500Y383500D02*
X53500D01*
X28500Y358100D02*
X53500D01*
X28500Y332700D02*
X53500D01*
X28500Y307300D02*
X53500D01*
X28500Y281900D02*
X53500D01*
X28500Y256500D02*
X53500D01*
X28500Y231100D02*
X53500D01*
X28500Y205700D02*
X53500D01*
X28500Y180300D02*
X53500D01*
X28500Y154900D02*
X53500D01*
X311064Y356814D02*
Y366186D01*
X306500Y370750D02*
X311064Y366186D01*
X331750Y417750D02*
Y430000D01*
X308564Y417314D02*
X317686D01*
X304500Y413250D02*
X308564Y417314D01*
X317750Y417378D02*
Y430000D01*
X317686Y417314D02*
X317750Y417378D01*
X311500Y356750D02*
X323750D01*
X311128D02*
X311500D01*
X323750D02*
X323750Y356750D01*
X311064Y356814D02*
X311128Y356750D01*
X250500Y378372D02*
Y390250D01*
Y378000D02*
Y378372D01*
X250564Y378436D01*
X259686D01*
X264000Y382750D01*
X250500Y365750D02*
Y378000D01*
X323750Y342750D02*
X323750Y342750D01*
X311500Y342750D02*
X323750D01*
X236500Y365750D02*
Y378000D01*
D51*
X331750Y430000D02*
X345500D01*
X331750Y417750D02*
X345750D01*
X146000Y423750D02*
X153750D01*
X146000Y423750D02*
X146000Y423750D01*
X225314Y371000D02*
X227562Y368751D01*
X224750Y371000D02*
X225314D01*
X227562Y368751D02*
X233999D01*
X236500Y365750D02*
Y366250D01*
X233999Y368751D02*
X236500Y366250D01*
X226314Y378000D02*
X236500D01*
X224250Y379500D02*
X224814D01*
X226314Y378000D01*
X225907Y387157D02*
X229000Y390250D01*
X225907Y387157D02*
X226027Y387036D01*
X225790Y387273D02*
X225907Y387157D01*
X218953Y392361D02*
Y398547D01*
X224040Y387273D02*
X225790D01*
X218953Y392361D02*
X224040Y387273D01*
X256500Y414000D02*
X261000Y409500D01*
X256500Y414000D02*
Y424500D01*
X153750Y423750D02*
Y429250D01*
Y418250D02*
Y423750D01*
X212437Y405063D02*
X218953Y398547D01*
X206813Y405063D02*
X212437D01*
X206750Y405000D02*
X206813Y405063D01*
X150890Y374140D02*
X181750Y405000D01*
X206750D01*
X311500Y330750D02*
Y342750D01*
Y330750D02*
X311500Y330750D01*
X323500Y342500D02*
X323750Y342750D01*
X323500Y330750D02*
Y342500D01*
X150890Y362790D02*
Y374140D01*
X150250Y362150D02*
X150890Y362790D01*
X229000Y390250D02*
X236500D01*
X153750Y408250D02*
X153750Y408250D01*
X167250D02*
X167250Y408250D01*
X153750Y408250D02*
X167250D01*
X153750Y439250D02*
X167250D01*
D53*
X41250Y568750D02*
D03*
D54*
Y594150D02*
D03*
D55*
X240050Y493500D02*
D03*
X326150D02*
D03*
D56*
X252750D02*
D03*
X265450D02*
D03*
X313450D02*
D03*
X300750D02*
D03*
X288050D02*
D03*
D57*
X167250Y439250D02*
D03*
Y408250D02*
D03*
D58*
X150250Y362150D02*
D03*
D59*
Y311350D02*
D03*
D60*
X28500Y485100D02*
D03*
Y459700D02*
D03*
Y434300D02*
D03*
Y408900D02*
D03*
Y383500D02*
D03*
Y358100D02*
D03*
Y332700D02*
D03*
Y307300D02*
D03*
Y281900D02*
D03*
Y256500D02*
D03*
Y231100D02*
D03*
Y205700D02*
D03*
Y180300D02*
D03*
Y154900D02*
D03*
X474500Y543900D02*
D03*
Y518500D02*
D03*
Y493100D02*
D03*
Y467700D02*
D03*
Y442300D02*
D03*
Y416900D02*
D03*
Y391500D02*
D03*
Y366100D02*
D03*
Y340700D02*
D03*
Y315300D02*
D03*
Y289900D02*
D03*
Y264500D02*
D03*
Y239100D02*
D03*
Y213700D02*
D03*
Y188300D02*
D03*
Y162900D02*
D03*
D61*
X322250Y185500D02*
D03*
D62*
X406250Y250872D02*
D03*
X254500Y553000D02*
D03*
X224250Y571500D02*
D03*
X344750Y487250D02*
D03*
X335250Y449500D02*
D03*
X345500Y430000D02*
D03*
X283750Y475500D02*
D03*
X313500Y448750D02*
D03*
X267000Y458750D02*
D03*
X276750Y447750D02*
D03*
X94500Y470166D02*
D03*
Y444416D02*
D03*
X406250Y479416D02*
D03*
X387250Y493200D02*
D03*
X406250Y504666D02*
D03*
X387250Y417000D02*
D03*
X387350Y340819D02*
D03*
X406250Y529916D02*
D03*
X387250Y544000D02*
D03*
Y518600D02*
D03*
X406250Y454072D02*
D03*
X387250Y468127D02*
D03*
X406250Y428434D02*
D03*
X387250Y442400D02*
D03*
X406250Y403166D02*
D03*
Y377916D02*
D03*
X387350Y391755D02*
D03*
X406250Y352416D02*
D03*
Y301666D02*
D03*
Y326916D02*
D03*
X387350Y315505D02*
D03*
X406250Y275750D02*
D03*
X387250Y290000D02*
D03*
X387350Y265005D02*
D03*
X387250Y163499D02*
D03*
X406250Y149166D02*
D03*
Y225472D02*
D03*
X387350Y239505D02*
D03*
X387550Y213700D02*
D03*
X406250Y200072D02*
D03*
X404500Y174500D02*
D03*
X387250Y188400D02*
D03*
X345500Y417750D02*
D03*
X387250Y366200D02*
D03*
X306500Y370750D02*
D03*
X104500Y485200D02*
D03*
X256500Y448750D02*
D03*
X104500Y459800D02*
D03*
Y282000D02*
D03*
Y307400D02*
D03*
X146000Y423750D02*
D03*
X224750Y371000D02*
D03*
X93750Y420672D02*
D03*
X104500Y434755D02*
D03*
X104431Y358255D02*
D03*
X93750Y369872D02*
D03*
X104531Y384500D02*
D03*
X104500Y332800D02*
D03*
X224250Y379500D02*
D03*
X226189Y386875D02*
D03*
X304500Y413250D02*
D03*
X261000Y409500D02*
D03*
X180000Y351750D02*
D03*
X211500Y397750D02*
D03*
X264000Y382750D02*
D03*
X311500Y330750D02*
D03*
X323500D02*
D03*
X93750Y395272D02*
D03*
X104500Y409505D02*
D03*
X104400Y180255D02*
D03*
X93750Y344166D02*
D03*
Y319111D02*
D03*
X104500Y256600D02*
D03*
Y231200D02*
D03*
Y205800D02*
D03*
Y155000D02*
D03*
X93750Y217166D02*
D03*
Y242416D02*
D03*
Y165416D02*
D03*
Y191916D02*
D03*
Y292666D02*
D03*
Y267416D02*
D03*
Y140166D02*
D03*
D70*
X153750Y408250D02*
D03*
Y418250D02*
D03*
Y429250D02*
D03*
Y439250D02*
D03*
D71*
X250500Y390250D02*
D03*
X236500D02*
D03*
Y378000D02*
D03*
X250500D02*
D03*
X236500Y365750D02*
D03*
X250500D02*
D03*
X331750Y417750D02*
D03*
X317750D02*
D03*
X331750Y430000D02*
D03*
X317750D02*
D03*
D72*
X311500Y342750D02*
D03*
Y356750D02*
D03*
X323750Y342750D02*
D03*
Y356750D02*
D03*
X256500Y438500D02*
D03*
Y424500D02*
D03*
M02*
