G04*
G04 #@! TF.GenerationSoftware,Altium Limited,Altium Designer,23.9.2 (47)*
G04*
G04 Layer_Physical_Order=2*
G04 Layer_Color=32768*
%FSLAX44Y44*%
%MOMM*%
G71*
G04*
G04 #@! TF.SameCoordinates,60F5B71E-2B93-43DD-B637-9BD39DAD1F72*
G04*
G04*
G04 #@! TF.FilePolarity,Negative*
G04*
G01*
G75*
%ADD61C,1.2700*%
%ADD63C,1.0160*%
%ADD64C,1.9160*%
%ADD65C,1.6160*%
%ADD66C,1.7160*%
%ADD67C,2.1160*%
%ADD68C,2.0160*%
D61*
X406250Y250872D02*
D03*
X224250Y571500D02*
D03*
X344750Y487250D02*
D03*
X335250Y449500D02*
D03*
X345500Y430000D02*
D03*
X283750Y475500D02*
D03*
X313500Y448750D02*
D03*
X267000Y458750D02*
D03*
X276750Y447750D02*
D03*
X94500Y470166D02*
D03*
Y444416D02*
D03*
X406250Y479416D02*
D03*
Y504666D02*
D03*
Y529916D02*
D03*
Y454072D02*
D03*
Y428434D02*
D03*
Y403166D02*
D03*
Y377916D02*
D03*
Y352416D02*
D03*
Y301666D02*
D03*
Y326916D02*
D03*
Y275750D02*
D03*
Y149166D02*
D03*
Y225472D02*
D03*
Y200072D02*
D03*
X404500Y174500D02*
D03*
X345500Y417750D02*
D03*
X256500Y448750D02*
D03*
X224750Y371000D02*
D03*
X93750Y420672D02*
D03*
Y369872D02*
D03*
X224250Y379500D02*
D03*
X226189Y386875D02*
D03*
X311500Y330750D02*
D03*
X323500D02*
D03*
X93750Y395272D02*
D03*
Y344166D02*
D03*
Y319111D02*
D03*
Y217166D02*
D03*
Y242416D02*
D03*
Y165416D02*
D03*
Y191916D02*
D03*
Y292666D02*
D03*
Y267416D02*
D03*
Y140166D02*
D03*
D63*
X0Y123250D02*
X502750D01*
X502750Y622300D02*
X502750Y123250D01*
X0Y622300D02*
X502750D01*
X0Y123250D02*
Y622300D01*
D64*
X41250Y568750D02*
D03*
D65*
X240050Y493500D02*
D03*
X252750D02*
D03*
X326150D02*
D03*
X313450D02*
D03*
X300750D02*
D03*
D66*
X167250Y439250D02*
D03*
Y408250D02*
D03*
D67*
X150250Y362150D02*
D03*
D68*
X28500Y485100D02*
D03*
Y459700D02*
D03*
Y434300D02*
D03*
Y408900D02*
D03*
Y383500D02*
D03*
Y358100D02*
D03*
Y332700D02*
D03*
Y307300D02*
D03*
Y281900D02*
D03*
Y256500D02*
D03*
Y231100D02*
D03*
Y205700D02*
D03*
Y180300D02*
D03*
Y154900D02*
D03*
X474500Y543900D02*
D03*
Y518500D02*
D03*
Y493100D02*
D03*
Y467700D02*
D03*
Y442300D02*
D03*
Y416900D02*
D03*
Y391500D02*
D03*
Y366100D02*
D03*
Y340700D02*
D03*
Y315300D02*
D03*
Y289900D02*
D03*
Y264500D02*
D03*
Y239100D02*
D03*
Y213700D02*
D03*
Y188300D02*
D03*
Y162900D02*
D03*
M02*
